<svg xmlns="http://www.w3.org/2000/svg" viewBox="0 0 1920 1080" width="1920" height="1080" fill="none"><path fill-rule="evenodd" d="M218.1-39.066c6.977 1.593 22.093 5.65 33.593 9.016s23.193 6.355 25.986 6.643 11.981 2.404 20.419 4.701 17.236 3.88 19.553 3.516 5.359.315 6.762 1.509 5.551 2.476 9.215 2.848c9.068.921 14.44 8.618 14.405 20.642-.014 5.236.782 9.17 1.772 8.741s1.263 1.718.609 4.77c-.901 4.209 1.536 8.225 10.095 16.637 11.889 11.685 20.332 15.233 37.563 15.784 4.054.13 16.791 3.133 28.305 6.673l20.934 6.437-2.879 10.142c-1.584 5.578-2.271 10.661-1.527 11.294s-.331 2.515-2.391 4.182-2.817 6.187-1.683 10.045c2.012 6.844 2.444 7.138 17.662 11.976 8.581 2.727 18.778 6.77 22.664 8.984s8.025 3.608 9.2 3.099 4.134.774 6.576 2.852c6.896 5.869 23.035 6.173 39.577.747 12.377-4.06 15.231-4.276 22.093-1.673 7.236 2.744 19.192 2.402 20.012-.572.189-.688 4.505-2.201 9.591-3.363s14.668-3.818 21.295-5.905 13.286-3.843 14.8-3.903c4.45-.179 12.498 9.255 14.363 16.834 2.279 9.272 4.133 10.541 13.746 9.405 9.346-1.104 12.581.833 11.429 6.84-.754 3.936.504 4.406 16.567 6.188 9.562 1.06 17.246 2.43 17.077 3.044s-4.533.687-9.698.163l-9.39-.954-.557 5.537c-.526 5.237 1.997 7.598 13.817 12.931 2.783 1.255-.161.571-6.543-1.522-10.199-3.344-11.611-4.35-11.668-8.309-.08-5.644-1.047-6.448-8.684-7.224-5.424-.55-6.108-1.301-5.723-6.286.397-5.132-.258-5.81-6.999-7.259-4.09-.878-9.023-.91-10.961-.071-3.803 1.648-6.751.225-5.904-2.849.288-1.048.094-2.39-.432-2.983s-1.926-3.611-3.11-6.709c-2.551-6.67-9.475-11.592-14.065-9.996-1.799.626-3.673 1.148-4.164 1.161s-8.032 2.716-16.758 6.006c-16.989 6.404-35.414 9.328-45.341 7.196-3.366-.723-10.509.012-15.875 1.635s-13.483 3.543-18.042 4.268c-5.745.914-9.011 2.378-10.643 4.77-2.419 3.544-.856 12.425 2.724 15.472 1.107.942 12.084-.389 24.394-2.959 16.887-3.524 23.827-4.085 28.274-2.286 3.242 1.312 12.001 2.503 19.465 2.648 10.29.199 14.84 1.344 18.823 4.733 2.888 2.458 8.126 5.425 11.638 6.591 6.008 1.996 5.844 2.043-2.75.796-5.025-.729-10.83-2.745-12.9-4.48-3.76-3.152-12.13-6.051-13.026-4.511-1.048 1.802-19.472 1.119-26.461-.983-6.419-1.929-9.973-1.366-25.44 4.028-9.888 3.449-19.249 5.947-20.803 5.551-4.528-1.155-9.706 1.949-11.843 7.101-4.054 9.769-6.7 22.202-4.766 22.398 1.099.112 1.864 1.361 1.699 2.776-.183 1.568 3.842 4.271 10.314 6.925 5.836 2.394 12.981 5.61 15.877 7.145 7.872 4.175 20.988 3.298 56.914-3.807 19.148-3.786 34.044-5.724 36.302-4.724 20.746 9.197 33.748 10.206 57.664 4.477 15.845-3.795 19.975-3.453 30.719 2.548 4.492 2.51 7.721 2.827 11.706 1.151 4.923-2.072 5.239-1.962 3.003 1.047-3.305 4.449 3.463 9.889 18.014 14.482 6.509 2.053 11.317 3.957 10.687 4.23-3.122 1.352 20.33 8.121 32.376 9.344 14.042 1.426 28.183-1.871 55.258-12.883 9.291-3.779 10.806-3.74 23.72.615 7.588 2.559 14.966 4.145 16.396 3.526s8.768-1.855 16.306-2.746c20.858-2.464 52.202-10.868 61.383-16.458 4.964-3.021 8.744-4.319 9.847-3.381.985.839-2.088 3.516-6.827 5.951-6.848 3.518-7.902 5.036-5.133 7.392 2.427 2.066 6.592 2.367 13.73.993 5.635-1.085 14.225-1.615 19.088-1.18s13.738-.609 19.715-2.323 12.55-3.099 14.61-3.077c2.05.021 8.33-1.284 13.96-2.9s11.45-2.628 12.93-2.251c3.29.838-17.17 6.743-30.1 8.692-5.17.778-13.352 2.988-18.185 4.912-6.513 2.593-10.427 2.906-15.118 1.207-3.482-1.261-8.114-1.674-10.291-.918-8.02 2.784-9.507 3.066-17.359 3.301-4.406.132-9.681-1.182-11.723-2.919-3.147-2.679-5.781-2.493-17.312 1.221-7.48 2.41-16.174 4.536-19.322 4.726-5.27.317-21.471 2.578-26.636 3.715l-4.451.917c-1.241.238-2.997.876-3.902 1.419s-7.369-.908-14.364-3.221l-12.718-4.207-24.748 10.316c-13.611 5.674-26.259 10.376-28.105 10.451-5.299.213-3.777 9.842 2.506 15.859 3.144 3.01 5.653 5.754 5.575 6.095s.367 1.407.989 2.368 1.11 2.009 1.081 2.328 1.33 2.376 3.018 4.569 3.993 6.732 5.122 10.087c3.406 10.112 7.341 14.248 16.169 16.997 4.622 1.44 10.248 4.135 12.498 5.99 6.412 5.281 18.455 7.921 25.263 5.537 3.411-1.194 11.344-3.792 17.63-5.774 27.814-8.769 33.331-11.138 37.541-16.122 2.393-2.832 5.812-5.741 7.598-6.463s1.022 1.405-1.697 4.728c-4.455 5.444-4.291 6.171 1.666 7.369 5.608 1.127 9.67-.034 26.824-7.67 12.101-5.387 22.386-8.902 25.623-8.759 2.972.133 7.421-.375 9.887-1.128s9.672-2.595 16.021-4.096c10.99-2.601 10.86-2.492-2.807 2.319-19.165 6.748-23.243 7.964-25.832 7.701-1.205-.122-11.582 4.228-23.061 9.668-19.961 9.459-21.351 9.841-31.904 8.769-9.585-.973-13.61-.129-30.642 6.424-10.784 4.15-20.467 7.458-21.518 7.351-2.776-.281-7.834 6.487-6.009 8.04 2.454 2.088 24.9-2.548 39.099-8.077 2.46-.958 8.068-.064 13.265 2.114 10.314 4.322 14.537 3.733 29.231-4.078 6.719-3.571 11.373-5.07 12.785-4.117 1.221.824 3.996 2.832 6.165 4.462s7.542 3.098 11.941 3.261 12.414 1.385 17.812 2.714c8.111 1.999 6.69 2.121-8.178.703-9.896-.943-18.962-1.295-20.148-.782s-3.723-.401-5.639-2.032c-3.59-3.055-3.32-3.118-26.511 6.183-9.061 3.634-14.348 4.146-18.063 1.75l-3.724-2.385c-1.666-1.059-20.602 2.404-31.064 5.681-11.157 3.495-20.762 1.813-30.243-5.295-5.133-3.848-16.2-9.971-24.594-13.607-14.083-6.101-15.675-7.311-20.625-15.677-12.76-21.569-15.735-25.539-26.797-35.757l-11.673-10.782-9.155 5.392c-11.288 6.649-13.783 10-8.907 11.96 4.595 1.846 1.783 3.314-5.027 2.622-9.899-1.005-11.415-5.494-3.786-11.218 4.038-3.032 8.151-5.867 9.138-6.301s2.654-2.896 3.705-5.471c1.994-4.883-8.526-16.246-16.008-17.291-2.042-.285-9.511-3.736-16.6-7.67-11.83-6.564-13.76-6.988-23.484-5.155-5.827 1.097-12.189 1.355-14.137.572-5.214-2.096-12.981-.369-14.549 3.234-1.902 4.367.29 5.628 7.064 4.061 7.737-1.788 14.465 1.189 15.688 6.944.8 3.766 2.387 5.049 7.986 6.458 3.842.967 7.822 1.396 8.842.955 3.917-1.697 4.922 2.11 1.325 5.019-2.078 1.682-5.021 6.879-6.541 11.549s-4.152 11.028-5.851 14.129-2.447 7.373-1.663 9.495c1.4 3.79 1.36 3.805-2.362.833-3.703-2.957-.837-16.228 3.953-18.302 1.33-.576 1.133-3.035-.436-5.464s-1.573-5.986-.008-7.906c3.392-4.159-.722-8.498-5.921-6.246-4.854 2.102-7.953-.801-6.872-6.439.83-4.331-.046-4.62-18.076-5.974-10.422-.782-18.53-1.009-18.018-.504s-2.959-.236-7.716-1.646c-7.881-2.337-9.666-2.072-20.135 2.991-9.798 4.739-12.783 5.315-20.308 3.92-4.852-.9-10.896-2.499-13.431-3.555s-6.164-1.246-8.064-.423c-2.949 1.278-3.969.441-6.977-5.726-1.938-3.973-5.037-9.174-6.888-11.559-3.395-4.375-3.776-4.366-16.282.367-2.297.87-7.733 1.334-12.079 1.032-11.59-.805-10.917 3.631 2.482 16.354 9.335 8.865 12.588 10.794 20.031 11.878 4.886.711 9.824.887 10.972.389 4.689-2.03 19.707-1.187 19.935 1.12.132 1.346.977 3.135 1.876 3.976 4.715 4.404 12.657 20.247 10.598 21.139-1.313.569-1.351 1.139-.086 1.268s4.151 2.904 6.41 6.168c10.05 14.519 53.227 27.936 106.84 33.2 35.408 3.477 42.301 5.883 41.274 14.406-.597 4.953 9.499 8.857 14.151 5.473 2.08-1.513 5.13-2.407 6.78-1.986s3.529-.001 4.176-.937 3.053-1.239 5.346-.674c4.977 1.227 14.495 8.86 12.256 9.83-2.663 1.153.929 6.992 4.26 6.925 1.727-.034 11.406 1.895 21.507 4.288s21.949 4.812 26.329 5.376 14.725 2.571 22.989 4.462c16.947 3.876 37.64 6.267 59.718 6.9 14.081.403 15.448.873 23.029 7.924 4.433 4.122 10.012 7.981 12.395 8.575 7.184 1.79 18.774-3.323 20.329-8.967 1.174-4.263 3.602-5.823 14.964-9.613 20.623-6.881 22.473-7.259 32.593-6.667 5.17.303 12.34.383 15.92.178 5.29-.301 5.8-.042 2.68 1.363-2.11.954-7.8 1.506-12.63 1.227-12.7-.732-41.23 9.243-45.014 15.735-1.544 2.648-1.725 4.362-.405 3.809s1.558.252.526 1.791c-1.159 1.729-6.517 3.609-14.026 4.922-6.684 1.169-13.974 2.915-16.201 3.88-6.151 2.664-3.142 14.512 5.98 23.535 7.324 7.248 9.071 8.034 17.394 7.834 10.84-.261 17.416-5.261 21.076-16.03 2.28-6.71 10.67-12.055 14.2-9.048 1.12.951 2.22 1.077 2.44.28s4.32-1.789 9.12-2.203 9.16-1.381 9.69-2.151c.54-.769 3.33-1.019 6.22-.555s13.37-.836 23.28-2.888c15.73-3.256 19.27-3.267 27.82-.091l14.14 5.115c2.39.811 11.71.8 20.72-.023 9-.823 17.32-1.155 18.49-.738s3.54.146 5.27-.605c2.09-.905 5.97.933 11.51 5.456 4.6 3.751 10.08 6.995 12.19 7.209 2.28.232 16.7-5.948 35.75-15.319l31.92-15.706 16.11 1.286c15.37 1.227 16.3 1.057 20.3-3.726 5.26-6.286 9.66-8.142 18.91-7.986 4.02.068 8.67-.468 10.34-1.192s7.03-1.886 11.92-2.583 10.8-1.753 13.14-2.348c23.88-6.066 59.1-32.208 63.14-46.868 1.38-5.018 2.22-5.488 11.71-6.576 5.62-.644 20.93-3.184 34.01-5.645 21.14-3.974 24.39-5.058 29.15-9.718 2.95-2.884 8.07-5.722 11.39-6.306 4.77-.841 4.27.048-2.38 4.249-11.46 7.238-11.84 8.402-3.14 9.558 7.13.949 7.27 1.101 2.83 3.024-2.57 1.114-7.54 1.304-11.05.422-5.8-1.461-9.79-.721-31.13 5.782-3.78 1.15-12.33 3.222-19.01 4.605-10.92 2.261-12.49 3.128-15.56 8.619-4.86 8.696-25.57 24.674-42.79 33.014-8.09 3.921-15.68 7.031-16.85 6.912s-4.83.625-8.13 1.653c-8.69 2.71-35.42 7.733-39.52 7.428-1.92-.143-7.37 2.775-12.1 6.484l-8.6 6.744-14.54-1.477c-14.28-1.451-14.81-1.339-29.97 6.322-14.84 7.499-43.1 20.502-54.83 25.231-3.1 1.247-6.08 1.711-6.65 1.03-.55-.68-4.79-4.285-9.41-8.01-7.73-6.235-9.19-6.646-18.5-5.182-5.56.874-10.77 1.773-11.58 1.997-.8.225-8.18.298-16.39.162-10.52-.173-16.71-1.457-20.96-4.344-7.36-4.994-11.9-5.402-27.48-2.47-6.64 1.248-18.6 3.067-26.58 4.041-7.97.975-14.3 2.077-14.06 2.45.25.373-2.29.557-5.64.408-4.08-.181-6 .465-5.84 1.97.14 1.232-1.38 2.946-3.37 3.809-2 .863-4.17 2.811-4.83 4.33-.67 1.518-2.27 4.98-3.56 7.692-1.53 3.221.26 8.694 5.17 15.774l7.51 10.842 14.59.508c8.02.279 15.23.04 16.02-.531 3.61-2.623 9.77 1.549 9.92 6.727.09 3.105 1.52 9.939 3.18 15.187 2.66 8.43 3.85 9.741 10.19 11.249 3.94.939 14.72 4.913 23.93 8.831 13.13 5.579 16.85 7.964 17.16 10.998.61 6.064 3.81 7.594 20.57 9.83 35.72 4.767 42.54 4.993 58.87 1.952 16.14-3.008 17.04-2.928 21.56 1.898l4.73 5.039 12.22-5.293c14.45-6.261 21.1-6.05 35.1 1.115 5.48 2.802 14.35 6.857 19.71 9.011s9.55 4.616 9.31 5.473c-.23.857.92.975 2.57.262 1.64-.713 3.09-.334 3.22.843.27 2.403 25.75 4.856 27.29 2.627.55-.786 2.8-.701 5.02.189 2.21.89 8.04 1.116 12.95.502 10.94-1.366 16.36-.573 34.85 5.101 7.94 2.435 22.47 5.31 32.3 6.387 9.82 1.078 22.31 2.862 27.76 3.965s12.28 1.267 15.17.365l13.31-4.202a723.41 723.41 0 0 1 17.72-5.303l15.14-4.368c7.59-2.258 22.61-4.28 23.86-3.213 1.3 1.108-12.13 5.828-16.96 5.954-6.54.173-20.65 4.153-37.31 10.526-11.4 4.36-19.62 6.271-26.66 6.198-5.59-.058-10.67.112-11.28.376s2.65 3.012 7.25 6.106c7.14 4.808 7.51 5.538 2.52 5.031-3.21-.326-7.15-1.517-8.77-2.648-16.48-11.525-52.16-24.528-62.75-22.864-2.49.391-5.55-.162-6.8-1.23-2.01-1.706-16.48-3.502-19.09-2.369-.54.233 1.52 3.549 4.58 7.369s6.11 10.054 6.79 13.855 1.49 7.043 1.8 7.208 1.66 2.839 3 5.943c2.66 6.163 3.5 6.32 40.18 7.419 12.67.379 15.72 1.24 20.14 5.681 4.09 4.104 7.54 5.329 15.97 5.668 13.45.542 9.1 3.004-4.61 2.613-6.37-.181-11.77-1.738-14.73-4.248-3.39-2.87-8.21-3.916-17.48-3.793-7.04.093-19.17-.536-26.96-1.398-13.16-1.456-14.26-1.945-15.58-6.896-1.76-6.616-24.5-32.891-31.61-36.521-2.89-1.474-9.8-2.582-15.37-2.464-10.85.23-29.45-7.258-47.91-19.288-8.24-5.368-10.97-6.123-16.99-4.689-3.95.939-10.07 4.003-13.6 6.808-6.08 4.818-6.93 4.938-15.47 2.183-4.97-1.603-9.76-3.528-10.64-4.276-3.21-2.729-13.16-2.448-17.19.485-3.16 2.295-6.72 2.342-14.98.2-5.96-1.545-10.14-2.216-9.3-1.489.85.725-4.17.38-11.14-.768s-20.66-2.912-30.41-3.921c-19.17-1.984-20.94-2.635-19.67-7.242.99-3.571-9.03-4.296-20.9-1.514-3.97.929-9.67 1.575-12.67 1.436s-11.16.68-18.14 1.822c-7.77 1.271-16.72 1.067-23.12-.528-6.07-1.512-12.56-1.718-15.51-.491-2.79 1.162-7.17 1.899-9.73 1.639s-5.23.362-5.94 1.383c-1.5 2.166 10.64 12.47 13.36 11.341 1.01-.42 7.66-1.117 14.76-1.549l21.35-1.454c22.13-1.751 26.53-.326 49.79 16.112 15.46 10.922 19.19 11.358 48.43 5.664 14.72-2.867 29.93-5.19 33.8-5.163 6.77.049 7.06.279 7.92 6.371 1.19 8.329 6.72 10.516 26.68 10.554 9.1.017 16.82.261 17.15.542 2.27 1.925-13.15 2.793-27.27 1.535-18.24-1.627-27.16-6.305-22.77-11.952 3.32-4.272 2.71-4.241-23.44 1.193l-27.55 5.661c-4.7.921-4.27 1.798 3.62 7.339 10.21 7.169 14.57 8.682 19.23 6.666 1.79-.777 7.84-.84 13.44-.139 5.59.7 14.73.683 20.31-.039s13.18-.398 16.9.719c6.34 1.906 5.95 2.016-6.26 1.779-18-.349-22.53 2.016-15.47 8.085 4.21 3.618 4.39 4.529.71 3.618-2.7-.669-7.29-3.415-10.21-6.103-5.9-5.451-13.33-7.272-21.73-5.33-5.51 1.275-5.14 7.348.54 8.796 1.37.348 5.59 4.634 9.38 9.522l6.89 8.888 16.49 1.521c25.58 2.358 31.33 4.236 39.94 13.032 4.19 4.273 9.16 10.589 11.04 14.034 2.8 5.094 4.39 6.201 8.54 5.924 2.8-.187 6.07.445 7.27 1.404 5.47 4.394 38.45 4.34 41.5-.066.7-1.007 2.85.542 4.99 3.588 3.25 4.622 4.45 5.065 8.71 3.222 2.71-1.175 6.28-1.794 7.92-1.376s9.04-.828 16.44-2.773c25.59-6.722 30.61-6.93 34.68-1.435 4.47 6.041 7.49 6.145 31.48 1.09 22.62-4.767 34.17-4.696 43.21.266 8.41 4.609 9.1 4.577 26.64-1.228l18.45-5.877c2.3-.633 6.55-2.101 9.45-3.263s10.25-1.724 16.33-1.25c11.54.9 16.84-1.108 43.5-16.499 8.58-4.952 8.64-4.954 2.63-.113-7.52 6.061-5.77 8.116 4.85 5.692 4.39-1.003 6.95-.898 5.67.234-1.27 1.132-8.06 2.909-15.09 3.949s-16.86 3.887-21.84 6.327c-6.87 3.359-11.64 4.224-19.68 3.563-5.83-.479-10.88-.505-11.2-.057s-.92.882-1.33.965c-3.61.732-13.66 3.667-21.26 6.211-5.1 1.702-12.68 3.904-16.85 4.892-7.04 1.666-7.2 2.225-2.2 7.736 7 7.71 14.84 8.773 35.32 4.789 8.85-1.72 20.07-3.465 24.93-3.878s10.64-1.523 12.84-2.469c2.21-.947 8.33-2.088 13.61-2.536 5.27-.449 12.01-1.855 14.96-3.124 2.94-1.269 6.62-1.987 8.16-1.593 1.55.393 9.02-.738 16.61-2.513 22.06-5.156 27.98-5.284 33.34-.724 3.47 2.952 8.69 4.167 19 4.414 13.71.328 42.67-2.23 47.13-4.164 1.2-.517 4.98-.483 8.42.074s4.79 1.179 3 1.381l-16.09 1.99-24.26 2.878c-6.28.691-12 1.465-12.72 1.718-5.97 2.122-20.1-.209-27.04-4.461-4.48-2.74-9.59-4.479-11.36-3.863-1.78.615-3.67 1.105-4.19 1.088-.53-.017-3.91.807-7.53 1.832-3.61 1.024-11.14 2.376-16.74 3.003-13.26 1.487-77.47 13.183-88.74 16.166-13.21 3.496-26.23.849-35.77-7.271-6.43-5.472-8.54-6.335-10.69-4.364-1.47 1.351-9.26 4.252-17.3 6.448l-18.74 5.188c-4.75 1.375-27.19-4.445-31.73-8.23-1.88-1.573-6.03-1.78-10.82-.541-14.36 3.709-55.68 11.387-60.5 11.241-5.71-.172-13.42-6.207-11.49-8.993 2.29-3.308-.95-4.402-13.75-4.644-24.58-.465-25.89.716-16.54 14.875l10.24 15.191c1.06 1.413 1.89 2.831 1.86 3.152s.52 1.256 1.23 2.075 1.1 2.216.85 3.101c-.24.885 3.31 3.647 7.91 6.138 5.79 3.144 14.86 5.02 29.68 6.139 18.9 1.426 21.39 2.089 21.77 5.78.71 7.043 4.93 8.641 28.9 10.956 23.09 2.229 23.14 2.247 26.14 8.754 2.68 5.825 4.05 6.724 12.83 8.43 5.4 1.05 10.98 1.405 12.41.789 5.04-2.185 8.27-.463 11.25 5.999 2.3 4.997 4.26 6.745 8.3 7.394 6.19.992 26.12-2.802 41.23-7.846 13.43-4.483 18.97-4.242 25.24 1.095 2.76 2.346 6.11 3.79 7.46 3.209 1.34-.582 4.29.519 6.56 2.447 2.84 2.418 8.66 3.467 18.78 3.384 16.5-.137 18.78 1.272 4.87 3.008-12.43 1.551-18.3.377-33.23-6.638-11.54-5.427-13.68-5.722-24.77-3.426-7.79 1.613-12.38 3.391-12.82 4.962-.43 1.573.7 2.395 3.15 2.296 2.11-.084 7.4 2.881 11.75 6.588 6.38 5.426 9.79 6.795 17.46 7.013 5.24.15 10.38.994 11.41 1.877 1.04.882-1.42 1.371-5.46 1.085-11.11-.785-14.01 1.448-7.29 5.607l15.16 9.377c6.59 4.078 8.17 5.806 5.41 5.917-2.15.086-5.12-.876-6.6-2.138-1.68-1.431-3.7-1.377-5.36.145-2.76 2.529-6.68.974-4.72-1.869.62-.886-4.79-6.819-12.02-13.183-16.03-14.121-25.67-17.548-50.69-18.022-9.84-.186-18.67-.999-19.62-1.806s-1.89-4.016-2.1-7.131c-.36-5.609-.51-5.671-15.1-6.37-12.52-.599-15.2-1.418-17.79-5.431-1.68-2.599-2.47-5.573-1.75-6.609 1.35-1.956-12.16-4.557-15.7-3.022-1.09.472-8.46.2-16.38-.604-13.69-1.39-14.64-1.816-19.4-8.672-2.75-3.966-5.41-7.157-5.91-7.09s-6.1.15-12.44.187-14.78.841-18.76 1.788c-6.85 1.631-6.85 2.253-.08 11.681 3.94 5.476 8.4 10.929 9.92 12.117 3.37 2.627 18.57 27.125 20.25 32.628.66 2.177-2.54 7.421-7.12 11.652l-12.26 11.406c-4.33 4.097-2.48 6.197 12.78 14.471 17.57 9.528 45.34 25.923 50.82 30.007 2.87 2.141 5.94 3.58 6.82 3.198s5.61 3.472 10.51 8.562c5.81 6.023 10.31 9.2 12.9 9.096 2.85-.115 4.21.983 4.83 3.914.61 2.839 3.33 5.179 8.98 7.723 4.46 2.007 9.62 5.009 11.46 6.67 1.85 1.66 7.47 5.77 12.5 9.131l20.56 14.143c6.28 4.417 13.71 8.749 16.51 9.627s5.73 2.828 6.52 4.334c3.65 7.021 5.76 16.692 4.14 19.013a3.52 3.52 0 0 0 .59 4.592c1.31 1.115 1.36 2.924.12 4.021-1.71 1.503.02 2.597 6.99 4.431 25.25 6.647 75.95 24.741 83.68 29.861.74.496 2.77 1.045 4.49 1.221 1.73.175 5.64 2.44 8.68 5.033 3.05 2.593 9.4 5.965 14.12 7.495s11.06 4.223 14.09 5.987 12.89 5.831 21.9 9.041 17.58 6.85 19.05 8.1c3.85 3.28 33.77 13.14 36.41 12 1.22-.53 4.86.41 8.1 2.08 3.24 1.68 6.67 2.71 7.62 2.3.94-.41 6.37.81 12.04 2.72 8.43 2.84 10.48 4.31 11.19 8.02.96 5.01 7.42 9.9 12.81 9.69 1.91-.07 3.79.41 4.19 1.08 1.29 2.14 16.94 7.42 19.16 6.46 1.18-.51 3.56.27 5.28 1.74 1.73 1.46 5.4 2.9 8.16 3.18s4.22.85 3.25 1.27c-.98.43 2.63 2.14 8 3.81 11.6 3.6 25.45 10.79 22.91 11.89-2.24.97-15.46-3.57-18.87-6.47-1.4-1.19-3.7-1.65-5.12-1.04-1.42.62-2.69.16-2.82-1.01-.13-1.18-1.46-1.61-2.96-.96s-2.84.22-2.97-.95c-.12-1.18-1.24-1.7-2.47-1.17-2.62 1.14-36.58-6.48-46.13-10.34-3.59-1.45-7.66-2.15-9.04-1.56-1.38.6-4.07-.25-5.99-1.88-1.91-1.63-4.58-2.49-5.92-1.91-3.86 1.67-8.08-3.21-5.12-5.92 3.49-3.21-2.23-7.95-8.43-6.97-2.67.42-4.95-.09-5.07-1.13-.26-2.39-17.92-8.19-20.95-6.87-1.25.53-3.71-.26-5.48-1.76-1.77-1.51-7.19-3.32-12.03-4.03-4.85-.71-8.9-2.13-9.01-3.15-.12-1.02-1.37-1.36-2.79-.74-1.42.61-3.79.09-5.26-1.16-3.86-3.28-31.83-11.86-34.67-10.63-1.32.57-3.64-.01-5.14-1.29-1.51-1.28-5.57-2.62-9.02-2.97s-7.79-1.92-9.63-3.5c-1.85-1.569-4.29-2.455-5.42-1.965s-12.88-2.978-26.12-7.706c-13.23-4.728-24.94-8.214-26.02-7.747-2.08.901-12.97-3.289-14.36-5.524-.45-.727-1.99-.818-3.41-.202s-2.68.26-2.8-.792c-.11-1.052-2.22-1.595-4.69-1.208s-8.86-1.479-14.21-4.148c-5.34-2.669-10.6-4.472-11.68-4.006-2.88 1.247-14.26-3.159-18.08-6.999-1.82-1.832-3.49-6.141-3.72-9.576-.22-3.436-1.01-6.377-1.75-6.535-.73-.158-.76-1.153-.06-2.211 2.69-4.036-2.3-17.66-7.72-21.086-3.11-1.965-11.82-7.669-19.36-12.676s-15.01-9.234-16.59-9.395c-3.72-.378-7.04 8.746-4.1 11.256 1.25 1.056 1.36 3.115.26 4.575s-1.38 6.041-.62 10.179c1.18 6.487 3.98 9.596 20.25 22.552 10.38 8.265 19.88 15.598 21.11 16.295 6.32 3.575 6.82 6.86 1.77 11.8-3.06 3-6.06 5.74-6.66 6.088-13.18 7.603-18.74 12.28-16.69 14.028 1.36 1.152 1.47 2.525.25 3.052s-3.1-.446-4.17-2.163c-1.14-1.807 1.4-5.802 6.01-9.488 4.38-3.502 10.41-9.026 13.4-12.277l5.44-5.91-11.75-7.937c-19.13-12.919-26.1-15.195-34.88-11.393-4.13 1.788-8.22 5.225-9.09 7.639-1.86 5.154-4.67 3.494-4.38-2.588.11-2.325 1.76-4.289 3.66-4.365s5.61-2.098 8.24-4.493c3.37-3.077 3.5-4.87.42-6.107-2.4-.964-4.49-4.323-4.65-7.464-.59-11.648-6.61-37.933-9.19-40.131-.71-.599-.93-2.92-.5-5.157.84-4.407-20.21-23.933-41.1-38.114l-18.66-12.682c-4.17-2.843-8.92-5.508-10.54-5.921s-10.51-5.738-19.76-11.832-20.61-12.262-25.24-13.706c-4.64-1.443-10.7-4.554-13.47-6.912-4.61-3.924-3.9-5.509 8.45-18.682l13.83-15.02c.19-.344-1.32-2.784-3.37-5.422s-7.07-11.225-11.17-19.083-8.58-14.401-9.96-14.541-2.22-1.971-1.87-4.07-2.53-7.32-6.41-11.605-6.9-9.099-6.71-10.697c.2-1.598-1.05-4.733-2.78-6.967-1.72-2.234-3.1-4.323-3.08-4.643.03-.32-.45-1.368-1.08-2.329-.62-.96-1.1-2.009-1.07-2.331.28-2.911-21.99-30.199-25.34-31.055-2.7-.687-5.92.798-12.16 5.612-4.66 3.601-8.6 7.151-8.75 7.89-.14.738-3.37 2.929-7.17 4.869-11.21 5.716-12.47 6.635-10.95 7.935.8.68.54 1.514-.58 1.854-7.22 2.187-9.77 5.013-6.81 7.536 1.85 1.576 1.67 4.241-.41 5.924s-3.4 4.839-2.94 7.017c.92 4.344-6.36 8.315-18.9 10.311-6.54 1.041-8.29 2.252-9.48 6.571-2.17 7.87-18.31 24.05-24.82 24.88-3.96.504-2.67-1.124 4.63-5.843 7.63-4.934 10.72-9.034 12.57-16.67 2.38-9.879 2.72-10.183 13.58-12.383 9.1-1.841 11.69-3.105 14.11-6.888 3.32-5.182 1.35-8.301-3.83-6.057-5.26 2.276-11.7-1.315-8.77-4.889 1.43-1.74 6.46-6.017 11.19-9.504 7.61-5.609 7.98-6.697 3.22-9.454-3.57-2.067-4.26-3.601-2.05-4.556 1.83-.792 4.89-.106 6.81 1.525 4.51 3.84 10.21 1.352 24.63-10.756 11.84-9.934 16.76-18.728 11.27-20.128-1.8-.459-2.62-1.787-1.82-2.949 1.7-2.46-10.41-5.768-26.94-7.361-29.43-2.833-35.76-6.227-55.33-29.666-22.5-26.949-40.06-34.077-85.59-34.737-17.26-.25-31.967-.77-32.677-1.154-6.134-3.319-13.552-8.568-22.092-15.638l-10.122-8.379-7.229 8.655c-3.976 4.759-7.973 10.868-8.881 13.575s-3.842 7.511-6.516 10.678c-4.363 5.165-4.047 6.492 3.078 12.888 4.367 3.922 8.523 7.513 9.232 7.982s-3.555 5.138-9.478 10.378c-6.744 5.965-9.775 10.374-8.108 11.792 1.464 1.246 11.191 4.584 21.615 7.418s19.65 5.746 20.503 6.471-.335 3.899-2.638 7.051c-5.455 7.466-3.268 10.169 12.555 15.508 9.059 3.057 14.178 5.985 16.695 9.549l3.63 5.139-5.858-3.684c-3.222-2.027-6.692-3.041-7.71-2.254-1.926 1.488-14.02-4.069-24.361-11.193-4.478-3.085-5.334-5.656-3.406-10.224l2.576-6.104-14.066-4.159c-7.736-2.288-17.239-4.39-21.117-4.672-6.465-.468-7.193-.113-8.78 4.288-.952 2.64.108 6.364 2.355 8.276s2.986 3.953 1.643 4.535c-4.91 2.127-10.053-5.917-8.895-13.915l1.189-8.215-8.491-.676c-6.876-.547-9.484-1.889-13.713-7.056-2.872-3.509-5.694-6.175-6.272-5.925s-2.459 5.006-4.179 10.567c-3.349 10.821-1.325 19.822 4.406 19.591 1.862-.074 4.253.603 5.315 1.507s.691 1.516-.824 1.362-3.355 1.103-4.091 2.791c-1.026 2.359-2.004 2.503-4.218.619-1.585-1.348-4.802-2.15-7.149-1.781s-10.853-.698-18.9-2.371c-11.335-2.357-15.051-3.994-16.498-7.264-1.472-3.328-3.543-4.175-9.78-4.002-11.449.317-23.117 3.483-22.822 6.192.139 1.27-2.693 3.601-6.293 5.179-11.195 4.907-11.823 8.274-2.267 12.16 7.096 2.885 7.834 3.741 5.229 6.061-1.668 1.485-3.869 6.223-4.89 10.529s-1.773 6.136-1.67 4.067-.414-4.272-1.148-4.898-1.341-4.087-1.347-7.693c-.007-5.329-1.381-7.146-7.336-9.703-6.903-2.965-6.949-3.535-.806-9.818 3.586-3.669 5.915-7.187 5.174-7.817-2.73-2.323-15.638-1.889-30.976 1.043-17.381 3.322-18.061 3.279-26.42-1.658-8.556-5.055-10.984-5.266-16.945-1.476-7.488 4.762-5.664 9.409 7.431 18.933 8.793 6.395 11.205 9.374 10.992 13.577-.233 4.577 1.533 6.494 11.786 12.794 6.632 4.075 14.866 10.724 18.296 14.776l11.112 13.085c6.856 8.042 10.165 12.286 10.105 12.963-.028.32.383 1.148.913 1.842s1.121 2.199 1.313 3.346 2.475 3.682 5.074 5.633 10.931 8.567 18.516 14.703l13.79 11.156 19.469.104c10.707.057 20.042-.115 20.742-.381s6.251-.486 12.334-.487c9.181-.002 13.45-1.202 25.132-7.061 13.259-6.652 14.492-6.913 21.322-4.518 3.988 1.398 8.724 2.001 10.525 1.34 18.169-6.667 35.034-19.646 30.519-23.488-1.405-1.196.318-5.529 3.828-9.628l6.382-7.454-.412 7.831c-.551 10.485 3.008 13.016 14.359 10.207 5.103-1.262 9.873-2.713 10.6-3.223s4.056-.488 7.396.049c5.4.867 5.25 1.133-1.43 2.399-14.598 2.767-26.889 6.999-32.779 11.283-7.449 5.42-32.331 17.713-38.976 19.257-2.733.634-7.114.177-9.734-1.016-3.575-1.629-7.085-1.165-14.068 1.86-11.815 5.117-12.165 8.717-1.601 16.516 4.651 3.434 10.592 10.528 13.2 15.764 4.109 8.248 5.355 9.425 9.314 8.803 10.724-1.685 41.647 12.97 64.386 30.514 3.918 3.023 8.708 5.201 10.638 4.841 9.79-1.824 38.52.376 44.12 3.379 20.03 10.754 47.74 20.668 60 21.468 1.23.081 8.57 1.373 16.31 2.872 17.25 3.344 32.63 5.014 35.35 3.837 1.12-.484 4.58-.472 7.69.027 4.63.744 4.93 1.218 1.69 2.624-5.94 2.572 9.58 15.01 23.11 18.516 5.77 1.498 9.4 3.199 8.06 3.78-4.4 1.904-23.31-4.268-29.69-9.689-6.14-5.209-35.07-13.722-39.75-11.695-1.16.503-8.53-.833-16.39-2.969-7.85-2.135-14.99-3.559-15.85-3.165s-2.63 4.935-3.92 10.088c-2.15 8.564-1.48 10.113 7.73 18.022 5.54 4.759 9.88 9.338 9.65 10.175s-5.89-3.129-12.57-8.814c-11.47-9.764-12.04-10.86-10.23-19.795 2.25-11.182.32-12.669-31.18-23.973-21.19-7.607-33.25-10.722-33.8-8.731-.15.537-7.42.437-16.15-.222-14.469-1.091-16.654-1.861-24.527-8.641-15.27-13.153-42.307-25.061-62.348-27.462-9.36-1.121-9.602-1.3-18.123-13.405-17.354-24.654-16.598-24.173-38.63-24.601-27.446-.534-32.009.722-33.113 9.11-1.17 8.868-4.382 12.491-17.802 20.075-12.595 7.118-13.116 9.474-3.411 15.424 5.124 3.141 6.874 5.967 6.521 10.533-.265 3.433.269 6.881 1.186 7.661s1.464 4.068 1.214 7.305.625 6.804 1.943 7.926 3.607 6.069 5.086 10.993c2.633 8.774 2.854 8.978 11.113 10.241 4.635.709 11.357 1.335 14.939 1.391 6.765.105 15.201 6.367 15.021 11.153-.055 1.475 1.72 4.733 3.946 7.24 3.336 3.759 6.584 4.563 18.523 4.586 7.962.015 15.21.651 16.106 1.414s3.144.73 4.996-.072c4.393-1.903 20.015 4.075 25.212 9.648 2.729 2.927 7.734 4.824 15.185 5.757 6.112.765 11.859 2.027 12.77 2.803s-1.435.795-5.213.043c-6.62-1.317-6.817-1.239-5.399 2.132 1.214 2.887-.342 2.778-8.894-.622-5.702-2.267-13.175-6.68-16.606-9.809s-7.136-5.299-8.232-4.824-12.667.044-25.711-.958l-23.716-1.822-7.979-10.402c-6.804-8.871-9.16-10.681-16.003-12.298-10.325-2.439-13.402-1.024-8.295 3.816 10.09 9.563 16.764 16.277 16.711 16.813-.121 1.26 4.872 7.895 11.37 15.105 5.764 6.394 9.195 8.204 22.13 11.67 18.66 4.999 19.073 5.287 19.37 13.53.132 3.635 1.089 7.75 2.129 9.146 2.228 2.989 5.087 13.055 5.156 18.149.037 2.793 3.124 4.603 14.016 8.218 11.23 3.727 14.047 5.414 14.371 8.603.477 4.717 4.8 5.678 40.392 8.986 19.076 1.772 24.876 3.141 29.296 6.902 3.04 2.581 4.96 5.502 4.27 6.492-.7 1.01 4.54 4.206 11.92 7.276 13.79 5.738 14.97 8.692 1.9 4.759-11.51-3.461-17.23.596-8.1 5.743 1.23.7 6.32 5.66 11.31 11.03 7.85 8.46 8.5 10.37 4.82 14.24l-4.25 4.46-.36-5.54c-.25-3.83-4.22-8.88-12.86-16.34-10.97-9.49-12.21-11.471-10.17-16.287 1.28-3.014.86-7.672-.94-10.35-2.84-4.22-5.52-5-20.092-5.842l-30.991-2.055c-7.797-.596-14.71-.311-15.362.633-1.86 2.688 5.943 8.251 13.621 9.712 9.649 1.835 15.381 7.162 12.072 11.22-1.522 1.867-4.274 8.629-6.115 15.029s-4.022 11.93-4.849 12.29c-2.452 1.06-1.73-11.37 1.233-21.24l2.754-9.178-10.416-2.182c-13.7-2.871-18.041-6.925-20.91-19.523-2.329-10.23-2.576-10.5-12.762-13.943-9.732-3.29-10.605-4.028-13.819-11.675-1.887-4.49-3.313-9.725-3.169-11.633.4-5.316-3.962-17.523-7.268-20.336-1.624-1.382-7.467-3.459-12.985-4.615-8.007-1.678-11.658-3.777-18.096-10.406-4.435-4.567-7.887-8.38-7.67-8.474 1.401-.607-18.303-20.091-27.142-26.838-11.284-8.615-15.971-1.168-6.291 9.996 2.328 2.683 7.22 10.129 10.874 16.545s9.017 14.185 11.92 17.265c9.763 10.359 9.72 16.857-.149 22.414-4.869 2.741-15.058 6.338-22.643 7.992-10.513 2.294-14.556 3.948-17.012 6.958-4.36 5.346-.228 15.179 9.326 22.196 8.986 6.6 9.237 7.514 4.159 15.138-2.039 3.062-2.283 5.931-.542 6.375 5.29 1.348 27.968 21.834 27.211 24.584-.476 1.73-2.291.62-5.565-3.41-2.672-3.28-10.03-9.38-16.351-13.547-10.836-7.147-11.82-7.4-17.23-4.405-3.157 1.747-5.341 5.018-4.855 7.272s1.171 7.99 1.523 12.76c.439 5.95 2.908 10.5 7.876 14.49 3.979 3.2 6.872 7.2 6.427 8.89-.632 2.4-1.859 1.95-5.599-2.05-14.337-15.35-15.481-17.44-20.524-37.464-.419-1.665 4.389-7.271 10.685-12.459l11.447-9.433-12.01-9.587c-11.387-9.09-11.875-9.996-9.4-17.449 1.436-4.322 3.673-7.752 4.972-7.62 3.291.334 9.637-1.54 26.495-7.827 17.215-6.42 24.281-11.063 19.663-12.919-1.837-.738-3.098-2.325-2.801-3.527s-2.61-5.579-6.461-9.727-7.095-8.28-7.21-9.182-3.376-5.273-7.246-9.714c-10.37-11.9-11.686-19.956-4.705-28.796 3.375-4.275 5.31-8.653 4.298-9.73s-1.815-2.217-1.787-2.537-1.217-2.24-2.767-4.268-3.403-7.265-4.117-11.64c-3.405-20.836-5.675-26.248-12.951-30.875-4.028-2.562-14.348-9.758-22.935-15.991l-15.611-11.333 4.958-7.168c2.726-3.942 4.438-7.616 3.803-8.163s.365-8.007 2.221-16.575c2.336-10.787 1.839-18.948-1.619-26.533-2.747-6.025-5.86-11.413-6.917-11.972s-4.805-4.587-8.329-8.948c-5.163-6.39-9.139-8.964-20.465-13.248-17.93-6.784-24.865-12.561-20.905-17.417 3.692-4.528-8.132-15.989-15.329-14.858-9.661 1.518-17.928 19.666-12.484 27.408 1.851 2.633 2.229 6.175.839 7.871-2.042 2.493-20.27 10.401-31.286 13.572-9.397 2.706-17.599 8.859-23.44 17.586-7.349 10.98-9.344 31.471-3.773 38.758 2.601 3.403 1.359 6.886-5.148 14.43-10.275 11.911-11.291 14.843-7.054 20.328 1.778 2.301 3.067 4.255 2.864 4.343s.526 1.356 1.619 2.819c6.758 9.05 18.901 34.158 16.931 35.011a130.2 130.2 0 0 0-4.125 1.878c-2.782 1.348 4.015 13.515 12.981 23.239 7.197 7.805 7.773 10.104 4.718 18.868-4.398 12.625-13.673 27.652-18.306 29.658-2.802 1.214-1.428 3.026 6.48 8.55 9.973 6.967 10 7.059 4.453 15.151-3.068 4.478-5.734 8.522-5.922 8.986s1.893 3.202 4.624 6.086 4.814 5.308 4.629 5.389.807 1.664 2.205 3.519 4.587 6.515 7.083 10.356c3.953 6.083 3.159 5.608-6.153-3.681-7.217-7.2-11.154-9.996-12.117-8.603-.785 1.134-.518 2.868.593 3.852 1.928 1.706 2.18 14.117.258 12.621-3.886-3.024-8.185-19.615-6.037-23.299 1.493-2.563.814-6.161-1.542-8.166-2.918-2.484-2.792-5.266.411-9.058 3.792-4.488 3.535-6.401-1.429-10.625-3.33-2.833-6.968-4.87-8.084-4.527-18.224 5.604-26.691 12.567-21.083 17.339 1.445 1.23 1.401 3.362-.099 4.737s-1.579 5.56-.176 9.299 1.523 6.694.268 6.567c-8.425-.856-5.366-39.61 3.154-39.952 6.697-.27 8.682-6.85 3.605-11.951-6.295-6.322-5.29-7.88 10.764-16.694 16.807-9.228 22.475-17.428 16.988-24.576l-6.842-8.889c-1.426-1.844-3.843-4.524-5.371-5.956s-1.54-6.727-.026-11.767 1.272-10.771-.537-12.739-3.113-3.654-2.898-3.747-.423-1.327-1.417-2.742l-7.561-11.005c-3.165-4.638-6.538-8.511-7.495-8.609-4.723-.479-12.282 8.1-12.274 13.93.014 8.992-2.711 8.008-5.533-1.998-2.473-8.765.104-13.926 8.841-17.71 9.569-4.145 26.063-25.062 23.954-30.378-6.134-15.465-6.556-19.438-3.161-29.733 6.155-18.667 11.072-22.956 37.995-33.141l23.188-8.772-4.162-7.411c-2.289-4.076-3.426-9.451-2.527-11.944 1.762-4.888 12.703-15.084 19.317-18.004 2.239-.989 4.551-3.263 5.135-5.054s4.803-9.362 9.374-16.824 8.341-17.652 8.378-22.646c.069-9.443-4.383-14.437-28.424-31.886-7.702-5.591-8.719-7.415-6.654-11.938l2.438-5.337-13.082-1.329c-15.249-1.549-19.438-.252-20.396 6.314-.383 2.627-3.611 6.039-7.172 7.581-4.46 1.932-7.356 6.311-9.309 14.083-2.786 11.079-5.182 12.977-18.632 14.758-4.63.613-6.222 2.308-6.642 7.072-.666 7.547-5.767 7.909-6.254.444-.496-7.592 4.056-12.458 11.352-12.134 4.969.221 6.341-1.96 8.754-13.925 1.761-8.723 4.259-13.831 6.488-13.263 2.537.647 5.029-.869 8.315-5.059 6.505-8.294 6.158-9.373-6.06-18.837-11.417-8.843-11.575-12.154-.801-16.821 2.632-1.139 4.252-3.32 3.602-4.845-1.85-4.338-21.299-16.555-24.472-15.372-1.566.584-5.437 1.679-8.606 2.432s-9.453 2.462-13.966 3.796-12.867 2.988-18.563 3.679c-9.626 1.166-10.521 1.674-12.711 7.215-1.294 3.279-1.404 6.77-.241 7.759 2.727 2.321-1.417 6.043-11.683 10.489-6.713 2.908-8.389 5.408-9.327 13.909-1.366 12.396-2.782 13.908-16.254 17.345-9.969 2.544-10.239 2.858-6.642 7.719 2.191 2.96 2.212 6.685.051 8.957-2.035 2.14-2.336 6.463-.67 9.606l3.03 5.715-6.574-5.759c-5.218-4.572-5.765-6.609-2.651-9.885 2.619-2.753 2.485-5.041-.403-6.879-3.681-2.343-5.666-2.059-13.32 1.906-4.947 2.563-10.965 6.456-13.376 8.652s-5.225 3.907-6.253 3.803c-6.551-.666 23.76-22.957 42.447-31.216 9.354-4.134 10.307-5.463 10.354-14.426.047-9.255.672-10.06 9.969-12.864 9.055-2.731 9.896-3.671 9.674-10.81-.413-13.218 3.42-15.258 42.999-22.878 2.479-.477 9.422-2.587 15.427-4.689 8.769-3.069 11.244-4.975 12.575-9.683.911-3.224 6.894-11.627 13.295-18.675 10.952-12.058 11.274-13.018 5.447-16.284-10.582-5.931-13.455-12.577-7.694-17.799 3.743-3.391 4.355-7.778 2.148-15.375-1.698-5.846-3.1-12.233-3.114-14.193-.02-2.728-2.321-4.304-9.814-6.721-10.38-3.348-17.726-8.371-16.857-11.525.289-1.048-.031-2.379-.709-2.956s-.143-5.413 1.195-10.743c2.452-9.774 1.556-13.101-2.997-11.129-3.258 1.411-22.64-3.658-26.505-6.932-1.739-1.473-.541-5.46 2.822-9.388 6.029-7.04 10.112-17.971 9.648-25.829-.358-6.081-22.704-27.929-31.293-30.595-3.658-1.136-13.843-3.28-22.635-4.765-14.767-2.494-16.767-3.415-26.287-12.106-10.064-9.189-19.539-18.831-18.812-19.145.199-.086-1.686-2.491-4.19-5.344-5.843-6.657-10.052-6.38-16.333 1.073-2.776 3.294-9.094 9.491-14.042 13.771-8.666 7.498-8.791 8.236-3.432 20.197 4.524 10.097 4.562 12.369.202 12.176-2.947-.131-4.775.259-4.062.866s-1.147.996-4.137.863c-4.29-.191-5.526.94-5.868 5.37-.337 4.368-3.59 7.408-14.67 13.709l-14.236 8.098 6.654 6.626 6.654 6.627-18.51 8.371-22.702 9.908c-2.707.992-2.943 4.444-.667 9.747 3.496 8.147 3.441 8.233-6.841 10.856-5.701 1.454-10.817 3.298-11.369 4.097s-2.381 1.103-4.062.674c-5.043-1.285-18.303 6.9-24.938 15.394-4.355 5.578-5.27 9.832-3.054 14.214 1.785 3.532 1.446 7.784-.78 9.774-2.687 2.4-2.484 4.761.637 7.417 2.519 2.143 4.583 6.567 4.588 9.831s.633 6.503 1.396 7.198 1.161 2.033.886 2.972c-.715 2.441-9.448-7.305-9.416-10.507.015-1.532-2.6-3.455-6.152-4.523-8.575-2.577-14.932 3.342-12.293 11.446 1.112 3.415.246 6.725-1.924 7.355s-3.711 2.943-3.424 5.142c1.052 8.027-1.603 15.057-8.078 21.392-3.642 3.564-7.245 6.75-8.006 7.079-1.982.859 1.362-7.809 5.333-13.824 1.856-2.81 3.246-8.683 3.09-13.051s1.084-8.541 2.756-9.274 1.219-3.06-1.009-5.171c-6.018-5.703-6.683-6.645-6.125-8.669.436-1.583 11.269-7.517 27.01-14.796 4.255-1.967 2.576-9.62-3.386-15.436-3.875-3.779-2.409-6.708 4.984-9.955 3.081-1.354 8.768-5.79 12.637-9.857 6.51-6.845 8.019-7.575 20.213-9.766 16.146-2.903 18.51-4.852 13.724-11.319l-3.724-5.032 23.49-10.325c12.919-5.678 23.602-10.734 23.741-11.236s-.938-2.35-2.391-4.107-2.765-4.4-2.915-5.873-1.217-2.341-2.371-1.927c-6.535 2.34 6.372-6.788 15.173-10.732 8.438-3.782 10.817-6.164 12.121-12.14 1.438-6.591 2.594-7.591 10.169-8.796 9.292-1.479 11.055-3.648 7.154-8.802-1.387-1.834-3.035-4.795-3.66-6.582s-2.057-4.337-3.18-5.668c-3.256-3.852-1.534-9.804 3.46-11.967 14.694-6.364 24.385-35.406 16.104-48.255-2.963-4.596-3.811-9.374-2.047-11.536 1.655-2.03 2.17-4.406 1.144-5.279s-1.542-5.503-1.146-10.289-.007-10.797-.895-13.358-2.338-8.765-3.223-13.786c-1.728-9.822-1.235-9.426-36.411-29.218-17.925-10.085-23.598-14.238-22.205-16.253.679-.98-.047-5.779-1.613-10.663-3.355-10.469-9.382-14.361-33.891-21.889-33.099-10.166-45.785-21.895-55.641-51.442-3.5-10.496-9.546-18.798-12.695-17.434-1.319.572-11.135-1.191-21.811-3.917s-21.775-5.219-24.663-5.539c-7.465-.828-32.441-7.927-39.704-11.284-3.371-1.559-8.705-3.096-11.854-3.415s-7.629-2.202-9.956-4.182c-4.121-3.508-3.733-3.817 14.974-11.919l19.206-8.318 12.684 2.896zm488.924 196.245c4.734 1.119 13.685 1.082 19.89-.081 6.992-1.311 18.875-1.022 31.243.758l19.961 2.874-19.092-.567c-10.501-.312-20.466-.86-22.143-1.219s-4.828.489-6.999 1.884c-3.19 2.05-2.497 3.617 3.615 8.162l7.566 5.626-9.648-3.088c-7.671-2.457-9.561-3.8-9.229-6.556.342-2.83-1.562-3.575-10.37-4.061-5.934-.328-11.377-1.759-12.096-3.181-.935-1.848 1.145-2.005 7.302-.551zM570.05 224.823c.108.98 2.162 4.284 4.567 7.342s4.467 6.44 4.584 7.514 3.688 1.934 7.935 1.912 8.854.923 10.237 2.099c2.663 2.266 6.935 1.18 18.99-4.83 4.715-2.352 11.638-3.657 18.989-3.581 7.659.079 14.08-1.18 19-3.724 5.89-3.047 10.57-3.554 22.578-2.444 21.517 1.989 24.862-.062 11.683-7.167-6.594-3.555-11.681-5.009-14.003-4.003-2.006.869-10.885 3.009-19.732 4.754-12.148 2.398-18.719 2.504-26.851.43-5.923-1.509-11.33-1.932-12.017-.939-1.262 1.825-4.358.283-8.803-4.385-1.703-1.79-7.096-1.571-18.061.733-19.145 4.022-19.336 4.085-19.096 6.289zm174.123-14.818c8.13.072 18.934-1.244 24.006-2.925 8.651-2.864 8.59-2.757-.993 1.729-8.049 3.768-12.273 4.526-19.896 3.569-5.323-.667-14.264-.228-19.867.977-8.832 1.898-9.379 1.812-4.111-.644 3.343-1.559 12.731-2.777 20.861-2.706zM588.74 336.852c-5.061 5.991-.413 12.177 9.481 12.616 9.955.443 11.85 4.769 8.636 19.717-3.102 14.423-3.098 14.433 6.161 17.92 5.095 1.92 12.559 4.198 16.587 5.064 6.696 1.438 7.29 2.234 6.92 9.263-.222 4.229.52 7.289 1.65 6.8s.823 1.222-.682 3.804c-4.174 7.161 1.639 6.901 17.186-.77l14.086-6.95 13.962 3.662c10.975 2.878 16.559 3.091 26.101.998 6.677-1.464 17.215-2.448 23.42-2.186l11.281.475-16.528 1.616c-9.09.888-18.93 2.651-21.864 3.917-5.172 2.231-23.445-.138-27.467-3.56-2.025-1.724-6.48-.41-17.789 5.245-34.722 17.361-34.727 17.37-17.913 30.379l8.54 6.607-13.59 16.131c-19.177 22.761-19.037 22.132-7.528 33.929 9.468 9.705 10.699 15.309 4.562 20.779-2.272 2.025 4.362 8.528 14.596 14.308 5.903 3.334 14.593 5.498 26.87 6.69 9.98.969 18.688 2.223 19.351 2.787s.039 3.914-1.387 7.444c-2.377 5.889-1.603 7.224 9.381 16.178 9.279 7.566 13.478 9.77 18.677 9.807 3.689.026 5.795.442 4.683.924s3.861 1.097 11.055 1.364 18.202 1.038 24.461 1.711 12.945.546 14.856-.282 6.002-1.1 9.088-.605 6.1.196 6.696-.665 2.034-.05 3.198 1.803c1.365 2.179 4.474 3.186 8.784 2.849 3.669-.288 8.57.24 10.891 1.173 3.68 1.479 3.306 1.701-2.921 1.734-3.928.021-11.563-.748-16.966-1.707-6.498-1.154-12.15-.737-16.696 1.232-5.853 2.535-6.22 3.747-2.478 8.177 3.471 4.107 6.567 5.335 14.745 5.847 5.694.356 9.266 1.15 7.939 1.763-5.043 2.333-25.174-.609-26.346-3.85-3.082-8.511-21.361-15.222-36.356-13.349-8.678 1.084-9.284 1.684-11.773 11.631-2.413 9.647.77 17.427 6.174 15.086 1.236-.535 5.249.673 8.916 2.685 5.427 2.978 21.179 4.655 27.446 2.922 4.966-1.373 21.652-2.382 25.117-1.519 2.292.571 5.591.422 7.331-.331s6.619-.911 10.844-.349 11.445.045 16.044-1.146c10.145-2.63 22.329.842 22.904 6.529.245 2.418 2.222 4.259 5.617 5.232 2.88.826 4.633 1.762 3.895 2.082s2.776 1 7.811 1.511c6.003.609 8.769.168 8.036-1.282-.616-1.215-1.256-7.059-1.423-12.984s-1.298-10.874-2.511-10.997c-5.234-.532 5.474-8.624 23.197-17.533 15.263-7.672 20.686-11.624 26.817-19.541 4.227-5.458 6.975-10.529 6.106-11.268s1.015-4.428 4.186-8.199c10.11-12.022 13.368-42.923 5-47.412-.801-.429-.692-2.898.24-5.485s.204-5.974-1.62-7.527-1.734-2.886.201-2.964c4.723-.19 1.689-2.571-4.012-3.149-3.259-.331-3.805-1.716-1.938-4.919 1.429-2.451 1.639-4.924.467-5.495-3.32-1.618-9.632-15.295-8.974-19.445.326-2.051-.527-5.206-1.895-7.01s-3.428-5.707-4.577-8.673-3.197-6.336-4.55-7.487-4.92-7.715-7.927-14.586c-5.799-13.253-7.552-15.691-10.162-14.136-.894.534-2.64 1.164-3.881 1.402a50 50 0 0 0-4.627 1.18c-1.305.411-12.748-.296-25.429-1.571s-28.61-2.622-35.398-2.991c-9.713-.529-12.934-1.586-15.115-4.96-2.437-3.773-6.437-4.358-33.225-4.862-16.751-.315-31.002-1.046-31.67-1.625s-1.791-3.566-2.499-6.638c-1.231-5.35-1.809-5.597-13.666-5.827-6.81-.132-13.651.31-15.203.982-3.851 1.668-19.026-.022-21.86-2.434-1.265-1.076-1.645-5.589-.843-10.028s.296-8.367-1.122-8.729-1.512-2.029-.209-3.705c2.036-2.621.184-3.328-13.205-5.045-8.565-1.099-16.08-2.423-16.7-2.942s-7.934-1.88-16.257-3.026-21.305-4.191-28.852-6.768-14.686-4.266-15.866-3.755-4.192 3.352-6.693 6.312zm106.428-34.781c1.913 1.779 1.747 2.381-.422 1.535-1.963-.764-3.379-2.081-3.147-2.925s1.839-.218 3.569 1.39zm55.633-15.626c1.557 1.325-16.311 24.413-18.706 24.169-1.226-.124-2.843 1.181-3.591 2.9s-2.37 3.024-3.604 2.899c-1.803-.183 5.826-9.633 23.765-29.434.661-.73 1.623-.97 2.136-.534zm220.704-74.044c6.153-.811 6.194-.754 1.153 1.581-2.875 1.332-6.691 2.049-8.48 1.593-3.845-.981-1.455-2.016 7.327-3.174zm-38.092 83.618c1.789.456 2.153 1.305.81 1.887s-3.906.684-5.694.228-2.153-1.305-.81-1.886 3.906-.685 5.694-.229zm133.677 65.151c-1.08 1.663-4.78 4.158-8.22 5.543l-6.25 2.52 4.71-3.832c2.59-2.107 6.29-4.602 8.22-5.543 3.13-1.521 3.3-1.376 1.54 1.312zm-85.305 91.684c.193 2.95 1.971 6.742 3.952 8.428s2.433 4.134 1.007 5.442-1.764 3.934-.753 5.836 1.522 4.86 1.134 6.573c-.901 3.985 3.253 17.458 6.14 19.915 1.213 1.032 1.84 3.204 1.393 4.826s.828 4.717 2.834 6.877c3.468 3.737 8.388 4.157 18.078 1.546 9.06-2.441 13.45-2.208 22.47 1.191 7.39 2.783 13.8 3.173 27.53 1.676 9.84-1.074 19.29-1.597 20.99-1.163 1.71.435 3.63.025 4.28-.911s2.66-1.322 4.48-.859 4.26.428 5.43-.079c2.6-1.123-5.89-5.271-28.48-13.925-9.71-3.722-16.54-7.35-15.81-8.405 1.39-2.01-2.35-13.331-6.56-19.838-1.88-2.917-3.65-3.58-6.39-2.394-2.09.903-9.7.068-16.92-1.855-11.14-2.968-13.69-4.431-16.85-9.689-2.05-3.407-4.79-6.302-6.09-6.433s-2.19-1.655-1.98-3.384c.29-2.425-1.32-2.894-7.048-2.047-11.44 1.69-13.214 2.889-12.837 8.672zM805.818 579.463c1.843.469 1.155 1.142-1.614 1.578-5.389.846-7.412.119-3.899-1.403 1.264-.547 3.745-.626 5.513-.175zm704.702-275.29c10.05-2.059 11.34-1.937 8.38.8-2.08 1.921-4.6 2.749-6.21 2.039-1.48-.657-4.8-.282-7.38.833-2.57 1.115-5.46 1.36-6.42.545s-1.41-1.551-1-1.633l12.63-2.584zM896.266 602.562c1.224 3.821 2.437 4.788 5.328 4.249 2.059-.384 5.181.525 6.938 2.02 4.68 3.983 10.089 2.266 16.666-5.291 3.201-3.677 7.421-7.379 9.379-8.227 2.701-1.169 1.556-2.968-4.743-7.454l-8.561-5.976c-.143-.034-6.185 3.491-13.426 7.835-10.924 6.552-12.896 8.739-11.581 12.844zm-114.545 139.83c-1.129 6.801-3.15 15.972-4.49 20.381-2.427 7.983-.374 11.059 12.582 18.851 7.245 4.358 8.941 3.684 21.804-8.654 8.66-8.306 9.764-10.926 7.491-17.777-1.466-4.419-3.444-7.698-4.394-7.286s-4.882-2.44-8.733-6.338c-7.467-7.557-17.526-13.625-20.437-12.328-.972.433-2.693 6.351-3.823 13.151zM622.31 884.262c-3.4 2.272-6.526 5.375-6.945 6.895-.881 3.2 4.366 8.32 7.248 7.072 3.261-1.413 14.36-13.662 16.232-17.916 2.459-5.589-.756-7.482-5.973-3.514-2.409 1.831-7.161 5.189-10.562 7.463zm512.95-216.802c9.92 2.496 7.84 4.306-2.21 1.93-4.66-1.1-7.61-2.371-6.55-2.827 1.05-.455 4.99-.052 8.76.897zm334.95-91.044c5.36-1.04 10.37-1.361 11.14-.713.76.648-4.77 2.297-12.28 3.665-20.45 3.722-19.42 1.035 1.14-2.952zm33.07-6.351c8.23-.881 11.74-.206 15.47 2.973 3.7 3.15 8.94 4.194 22.35 4.458 9.64.19 15.85 1.069 13.81 1.954-2.05.885-6.26 1.202-9.37.703s-6.93-.358-8.48.315c-4.63 2.006-17.92-.83-22.62-4.826-3.89-3.315-14.62-3.64-23.56-.713-.98.32-3.19.438-4.91.263-5.34-.542 6.09-3.926 17.31-5.127zm-193.15 90.601c1.94.495 5.99-.166 9-1.47s7.32-2.184 9.57-1.955 11.88-1.052 21.39-2.846l17.31-3.261-2.73-4.225c-1.5-2.324-3.51-4.305-4.47-4.402s-13.03 2.86-26.81 6.573c-24.26 6.534-30.63 9.707-23.26 11.586zm153.78-57.464c1.79.456 2.15 1.305.81 1.887s-3.91.684-5.69.229c-1.79-.456-2.16-1.305-.81-1.887 1.34-.582 3.9-.685 5.69-.229zm12.03-.737c.96.816 3.33.797 5.26-.041 1.94-.839 4.85-1.186 6.47-.773 4.62 1.176-7.83 3.49-13.71 2.548-3.8-.611-4.49-1.168-2.5-2.029 1.51-.653 3.52-.52 4.48.295zm-93.92 50.545c.63 1.465 5.08 3.892 9.91 5.393 9.3 2.898 32.95-.26 46.77-6.247 6.16-2.668 6.26-3.352.94-6.492-7.86-4.642-14.44-5.545-20.85-2.859-2.89 1.21-11.17 2.815-18.39 3.567-15.81 1.644-19.88 3.114-18.38 6.638zm330.13-11.83c3.89-.571 7.41-.746 7.83-.389 1.3 1.104-10.74 3.396-13.78 2.623-3.34-.853-3.27-.879 5.95-2.234zM1526.2 766.952c3.31.107 9.77 2.593 14.36 5.527l8.35 5.334-12.05-3.733c-6.62-2.053-13.25-3.544-14.73-3.312-3.41.532-6.56-2.009-3.91-3.153 1.08-.471 4.68-.769 7.98-.663zm54.19-16.024l8.73-.411-7.25 1.675c-3.98.921-8.99 1.534-11.11 1.363-6.22-.501-.1-2.169 9.63-2.627zM1390.84 963.04c.69.701 1.87 3.018 2.63 5.149 1.33 3.735 1.24 3.76-2.6.7-2.2-1.746-3.38-4.063-2.63-5.149s1.92-1.4 2.6-.7zm41.13 39.6c3.73 4.96 4.73 18.03 1.34 17.69-1.05-.11-2.01-2.95-2.15-6.31-.13-3.37-.82-8.39-1.53-11.16l-1.29-5.03 3.63 4.81z" fill="#fff"/></svg>