<svg width="1920" height="1080" viewBox="0 0 1920 1080" fill="none" xmlns="http://www.w3.org/2000/svg">
<path fill-rule="evenodd" clip-rule="evenodd" d="M1702.71 -39.0663C1695.73 -37.4734 1680.62 -33.4166 1669.12 -30.05C1657.62 -26.6842 1645.92 -23.6945 1643.13 -23.4066C1640.34 -23.1192 1631.15 -21.0031 1622.71 -18.7052C1614.27 -16.4072 1605.47 -14.8253 1603.16 -15.1889C1600.84 -15.5531 1597.8 -14.8737 1596.4 -13.6797C1594.99 -12.4851 1590.84 -11.204 1587.18 -10.832C1578.11 -9.91071 1572.74 -2.21412 1572.78 9.81006C1572.79 15.0464 1571.99 18.9801 1571 18.5513C1570.01 18.1229 1569.74 20.2696 1570.39 23.3213C1571.3 27.5305 1568.86 31.5464 1560.3 39.9588C1548.41 51.6434 1539.97 55.1914 1522.74 55.7433C1518.68 55.8728 1505.95 58.8758 1494.43 62.4167L1473.5 68.854L1476.38 78.9959C1477.96 84.5742 1478.65 89.657 1477.9 90.2901C1477.16 90.9237 1478.23 92.8053 1480.29 94.4716C1482.35 96.1379 1483.11 100.659 1481.98 104.517C1479.97 111.361 1479.53 111.655 1464.32 116.493C1455.74 119.22 1445.54 123.263 1441.65 125.477C1437.77 127.691 1433.63 129.085 1432.45 128.576C1431.28 128.067 1428.32 129.35 1425.88 131.428C1418.98 137.297 1402.84 137.601 1386.3 132.175C1373.92 128.115 1371.07 127.899 1364.21 130.502C1356.97 133.246 1345.01 132.904 1344.19 129.93C1344 129.242 1339.69 127.729 1334.6 126.567C1329.52 125.406 1319.93 122.749 1313.31 120.662C1306.68 118.576 1300.02 116.819 1298.51 116.759C1294.06 116.58 1286.01 126.014 1284.14 133.593C1281.87 142.865 1280.01 144.134 1270.4 142.998C1261.05 141.894 1257.82 143.831 1258.97 149.838C1259.72 153.774 1258.47 154.244 1242.4 156.026C1232.84 157.086 1225.16 158.456 1225.33 159.07C1225.49 159.684 1229.86 159.757 1235.02 159.233L1244.41 158.279L1244.97 163.816C1245.5 169.053 1242.97 171.414 1231.15 176.747C1228.37 178.002 1231.32 177.318 1237.7 175.225C1247.9 171.881 1249.31 170.875 1249.36 166.916C1249.44 161.272 1250.41 160.468 1258.05 159.692C1263.47 159.142 1264.16 158.391 1263.77 153.406C1263.37 148.274 1264.03 147.596 1270.77 146.147C1274.86 145.269 1279.79 145.237 1281.73 146.076C1285.53 147.724 1288.48 146.301 1287.64 143.227C1287.35 142.179 1287.54 140.837 1288.07 140.244C1288.59 139.652 1289.99 136.633 1291.18 133.535C1293.73 126.865 1300.65 121.943 1305.24 123.539C1307.04 124.165 1308.92 124.687 1309.41 124.7C1309.9 124.714 1317.44 127.416 1326.16 130.706C1343.15 137.11 1361.58 140.034 1371.51 137.902C1374.87 137.179 1382.01 137.914 1387.38 139.537C1392.75 141.159 1400.86 143.08 1405.42 143.805C1411.17 144.719 1414.43 146.183 1416.07 148.575C1418.48 152.119 1416.92 161 1413.34 164.047C1412.23 164.989 1401.26 163.658 1388.95 161.088C1372.06 157.564 1365.12 157.003 1360.67 158.802C1357.43 160.114 1348.67 161.305 1341.21 161.45C1330.92 161.649 1326.37 162.794 1322.39 166.183C1319.5 168.641 1314.26 171.608 1310.75 172.774C1304.74 174.77 1304.9 174.817 1313.5 173.57C1318.52 172.841 1324.33 170.825 1326.4 169.09C1330.16 165.938 1338.53 163.039 1339.42 164.579C1340.47 166.381 1358.9 165.698 1365.88 163.596C1372.3 161.667 1375.86 162.23 1391.32 167.624C1401.21 171.073 1410.57 173.571 1412.13 173.175C1416.66 172.02 1421.83 175.124 1423.97 180.276C1428.02 190.045 1430.67 202.478 1428.74 202.674C1427.64 202.786 1426.87 204.035 1427.04 205.45C1427.22 207.018 1423.2 209.721 1416.72 212.375C1410.89 214.769 1403.74 217.985 1400.85 219.52C1392.97 223.695 1379.86 222.818 1343.93 215.713C1324.78 211.927 1309.89 209.989 1307.63 210.989C1286.88 220.186 1273.88 221.195 1249.97 215.466C1234.12 211.671 1229.99 212.013 1219.25 218.014C1214.76 220.524 1211.53 220.841 1207.54 219.165C1202.62 217.093 1202.3 217.203 1204.54 220.212C1207.84 224.661 1201.08 230.101 1186.52 234.694C1180.02 236.747 1175.21 238.651 1175.84 238.924C1178.96 240.276 1155.51 247.045 1143.46 248.268C1129.42 249.694 1115.28 246.397 1088.2 235.385C1078.91 231.606 1077.4 231.645 1064.48 236C1056.9 238.559 1049.52 240.145 1048.09 239.526C1046.66 238.906 1039.32 237.671 1031.78 236.78C1010.92 234.316 979.579 225.912 970.398 220.322C965.434 217.301 961.655 216.003 960.552 216.941C959.567 217.78 962.64 220.457 967.379 222.892C974.227 226.41 975.281 227.928 972.512 230.284C970.084 232.35 965.919 232.651 958.782 231.277C953.147 230.192 944.556 229.662 939.693 230.097C934.829 230.534 925.956 229.488 919.976 227.774C913.996 226.06 907.425 224.675 905.374 224.697C903.322 224.718 897.036 223.413 891.405 221.797C885.774 220.182 879.956 219.169 878.475 219.546C875.189 220.384 895.645 226.289 908.583 228.238C913.749 229.016 921.931 231.226 926.764 233.15C933.276 235.743 937.19 236.056 941.882 234.357C945.364 233.096 949.995 232.683 952.173 233.439C960.192 236.223 961.68 236.505 969.532 236.74C973.938 236.872 979.213 235.558 981.254 233.821C984.402 231.142 987.036 231.328 998.567 235.042C1006.05 237.452 1014.74 239.578 1017.89 239.768C1023.16 240.085 1039.36 242.346 1044.52 243.483C1045.73 243.75 1047.74 244.162 1048.98 244.4C1050.22 244.638 1051.97 245.276 1052.88 245.819C1053.78 246.361 1060.25 244.911 1067.24 242.598L1079.96 238.391L1104.71 248.707C1118.32 254.381 1130.97 259.083 1132.81 259.158C1138.11 259.371 1136.59 269 1130.31 275.017C1127.16 278.027 1124.65 280.771 1124.73 281.112C1124.81 281.454 1124.37 282.519 1123.74 283.48C1123.12 284.441 1122.63 285.489 1122.66 285.808C1122.69 286.129 1121.33 288.184 1119.64 290.377C1117.96 292.57 1115.65 297.109 1114.52 300.464C1111.12 310.576 1107.18 314.712 1098.35 317.461C1093.73 318.901 1088.11 321.596 1085.85 323.451C1079.44 328.732 1067.4 331.372 1060.59 328.988C1057.18 327.794 1049.25 325.196 1042.96 323.214C1015.15 314.445 1009.63 312.076 1005.42 307.092C1003.03 304.26 999.608 301.351 997.823 300.629C996.037 299.907 996.801 302.034 999.52 305.357C1003.97 310.801 1003.81 311.528 997.853 312.726C992.246 313.853 988.183 312.692 971.029 305.056C958.928 299.669 948.643 296.154 945.407 296.297C942.435 296.43 937.985 295.922 935.52 295.169C933.055 294.417 925.847 292.574 919.503 291.073C908.51 288.472 908.641 288.581 922.306 293.392C941.47 300.14 945.549 301.356 948.138 301.093C949.343 300.971 959.72 305.321 971.199 310.761C991.159 320.22 992.549 320.602 1003.1 319.53C1012.69 318.557 1016.71 319.401 1033.74 325.954C1044.53 330.104 1054.21 333.412 1055.26 333.305C1058.04 333.024 1063.1 339.792 1061.27 341.345C1058.82 343.433 1036.37 338.797 1022.17 333.268C1019.71 332.31 1014.1 333.204 1008.91 335.382C998.593 339.704 994.37 339.115 979.676 331.304C972.958 327.733 968.304 326.234 966.891 327.187C965.67 328.011 962.896 330.019 960.727 331.649C958.558 333.28 953.184 334.747 948.786 334.91C944.386 335.073 936.372 336.295 930.974 337.624C922.863 339.623 924.283 339.745 939.152 338.327C949.047 337.384 958.114 337.032 959.299 337.545C960.485 338.058 963.022 337.144 964.939 335.513C968.529 332.458 968.259 332.395 991.449 341.696C1000.51 345.33 1005.8 345.842 1009.51 343.446C1010.56 342.771 1012.24 341.698 1013.24 341.061C1014.9 340.002 1033.84 343.465 1044.3 346.742C1055.46 350.237 1065.06 348.555 1074.54 341.447C1079.68 337.599 1090.74 331.476 1099.14 327.84C1113.22 321.739 1114.81 320.529 1119.76 312.163C1132.52 290.594 1135.5 286.624 1146.56 276.406L1158.23 265.624L1167.39 271.016C1178.68 277.666 1181.17 281.016 1176.29 282.976C1171.7 284.822 1174.51 286.29 1181.32 285.598C1191.22 284.593 1192.74 280.104 1185.11 274.38C1181.07 271.348 1176.96 268.513 1175.97 268.079C1174.98 267.645 1173.32 265.183 1172.26 262.608C1170.27 257.725 1180.79 246.362 1188.27 245.317C1190.31 245.032 1197.78 241.581 1204.87 237.647C1216.7 231.083 1218.63 230.659 1228.36 232.492C1234.18 233.589 1240.55 233.847 1242.49 233.064C1247.71 230.968 1255.47 232.695 1257.04 236.298C1258.94 240.665 1256.75 241.926 1249.98 240.359C1242.24 238.571 1235.51 241.548 1234.29 247.303C1233.49 251.069 1231.9 252.352 1226.3 253.761C1222.46 254.728 1218.48 255.157 1217.46 254.716C1213.55 253.019 1212.54 256.826 1216.14 259.735C1218.22 261.417 1221.16 266.614 1222.68 271.284C1224.2 275.954 1226.83 282.312 1228.53 285.413C1230.23 288.513 1230.98 292.786 1230.19 294.908C1228.79 298.698 1228.83 298.713 1232.55 295.741C1236.26 292.784 1233.39 279.513 1228.6 277.439C1227.27 276.863 1227.47 274.404 1229.04 271.975C1230.61 269.546 1230.61 265.989 1229.05 264.069C1225.65 259.91 1229.77 255.571 1234.97 257.823C1239.82 259.925 1242.92 257.022 1241.84 251.384C1241.01 247.053 1241.88 246.764 1259.91 245.41C1270.34 244.628 1278.44 244.401 1277.93 244.906C1277.42 245.411 1280.89 244.67 1285.65 243.26C1293.53 240.923 1295.31 241.188 1305.78 246.251C1315.58 250.99 1318.57 251.566 1326.09 250.171C1330.94 249.271 1336.99 247.672 1339.52 246.616C1342.06 245.561 1345.69 245.37 1347.59 246.193C1350.54 247.471 1351.56 246.634 1354.56 240.467C1356.5 236.494 1359.6 231.293 1361.45 228.908C1364.85 224.533 1365.23 224.542 1377.73 229.275C1380.03 230.145 1385.47 230.609 1389.81 230.307C1401.4 229.502 1400.73 233.938 1387.33 246.661C1378 255.526 1374.74 257.455 1367.3 258.539C1362.41 259.25 1357.48 259.426 1356.33 258.928C1351.64 256.898 1336.62 257.741 1336.39 260.048C1336.26 261.394 1335.42 263.183 1334.52 264.024C1329.8 268.428 1321.86 284.271 1323.92 285.163C1325.23 285.732 1325.27 286.302 1324 286.431C1322.74 286.559 1319.85 289.335 1317.59 292.599C1307.54 307.118 1264.37 320.535 1210.75 325.799C1175.35 329.276 1168.45 331.682 1169.48 340.205C1170.08 345.158 1159.98 349.062 1155.33 345.678C1153.25 344.165 1150.2 343.271 1148.55 343.692C1146.9 344.113 1145.02 343.691 1144.37 342.755C1143.73 341.819 1141.32 341.516 1139.03 342.081C1134.05 343.308 1124.53 350.941 1126.77 351.911C1129.43 353.064 1125.84 358.903 1122.51 358.836C1120.78 358.802 1111.11 360.731 1101 363.124C1090.9 365.517 1079.06 367.936 1074.68 368.5C1070.3 369.064 1059.95 371.071 1051.69 372.962C1034.74 376.838 1014.05 379.229 991.968 379.862C977.888 380.265 976.521 380.735 968.939 387.786C964.507 391.908 958.928 395.767 956.544 396.361C949.361 398.151 937.771 393.038 936.216 387.394C935.042 383.131 932.614 381.571 921.252 377.781C900.628 370.9 898.78 370.522 888.662 371.114C883.49 371.417 876.323 371.497 872.735 371.292C867.447 370.991 866.939 371.25 870.057 372.655C872.173 373.609 877.859 374.161 882.692 373.882C895.385 373.15 923.918 383.125 927.703 389.617C929.247 392.265 929.428 393.979 928.108 393.426C926.786 392.872 926.55 393.678 927.581 395.217C928.741 396.946 934.099 398.826 941.608 400.139C948.291 401.308 955.582 403.054 957.809 404.019C963.96 406.683 960.95 418.531 951.829 427.554C944.504 434.802 942.758 435.588 934.434 435.388C923.594 435.127 917.023 430.127 913.363 419.358C911.083 412.648 902.688 407.303 899.155 410.31C898.037 411.261 896.943 411.387 896.723 410.59C896.503 409.792 892.397 408.801 887.598 408.387C882.798 407.974 878.437 407.006 877.906 406.236C877.373 405.467 874.574 405.217 871.684 405.681C868.794 406.145 858.319 404.845 848.407 402.793C832.679 399.537 829.135 399.526 820.588 402.702C815.2 404.704 808.837 407.006 806.447 407.817C804.058 408.628 794.736 408.617 785.731 407.794C776.728 406.971 768.406 406.639 767.24 407.056C766.073 407.474 763.702 407.202 761.969 406.451C759.88 405.546 756.003 407.384 750.459 411.907C745.861 415.658 740.378 418.902 738.273 419.116C735.991 419.348 721.568 413.168 702.521 403.797L670.594 388.091L654.489 389.377C639.122 390.604 638.193 390.434 634.189 385.651C628.926 379.365 624.53 377.509 615.278 377.665C611.263 377.733 606.612 377.197 604.941 376.473C603.271 375.75 597.906 374.587 593.018 373.89C588.131 373.194 582.218 372.137 579.877 371.542C555.995 365.476 520.778 339.334 516.74 324.674C515.357 319.656 514.52 319.186 505.028 318.098C499.405 317.454 484.1 314.914 471.018 312.453C449.884 308.479 446.632 307.395 441.87 302.735C438.922 299.851 433.797 297.013 430.48 296.429C425.709 295.589 426.206 296.477 432.858 300.678C444.319 307.916 444.702 309.08 436.002 310.236C428.87 311.185 428.726 311.337 433.165 313.26C435.737 314.374 440.709 314.564 444.214 313.682C450.02 312.221 454.005 312.961 475.349 319.464C479.125 320.614 487.678 322.686 494.358 324.069C505.28 326.33 506.845 327.197 509.916 332.688C514.781 341.384 535.492 357.362 552.71 365.702C560.803 369.623 568.384 372.733 569.557 372.614C570.73 372.495 574.39 373.239 577.69 374.267C586.381 376.977 613.104 382 617.205 381.695C619.13 381.552 624.575 384.47 629.304 388.179L637.904 394.923L652.447 393.446C666.733 391.995 667.263 392.107 682.42 399.768C697.258 407.267 725.515 420.27 737.249 424.999C740.344 426.246 743.334 426.71 743.894 426.029C744.453 425.349 748.688 421.744 753.306 418.019C761.035 411.784 762.502 411.373 771.81 412.837C777.37 413.711 782.578 414.61 783.384 414.834C784.19 415.059 791.567 415.132 799.777 414.996C810.294 414.823 816.489 413.539 820.741 410.652C828.098 405.658 832.636 405.25 848.22 408.182C854.86 409.43 866.819 411.249 874.795 412.223C882.771 413.198 889.098 414.3 888.855 414.673C888.611 415.046 891.15 415.23 894.496 415.081C898.584 414.9 900.499 415.546 900.335 417.051C900.201 418.283 901.721 419.997 903.714 420.86C905.706 421.723 907.879 423.671 908.543 425.19C909.205 426.708 910.806 430.17 912.098 432.882C913.631 436.103 911.839 441.576 906.931 448.656L899.415 459.498L884.829 460.006C876.807 460.285 869.598 460.046 868.811 459.475C865.194 456.852 859.039 461.024 858.886 466.202C858.794 469.307 857.364 476.141 855.708 481.389C853.05 489.819 851.862 491.13 845.522 492.638C841.576 493.577 830.803 497.551 821.584 501.469C808.457 507.048 804.737 509.433 804.43 512.467C803.816 518.531 800.615 520.061 783.858 522.297C748.137 527.064 741.314 527.29 724.993 524.249C708.852 521.241 707.948 521.321 703.424 526.147L698.703 531.186L686.482 525.893C672.027 519.632 665.376 519.843 651.374 527.008C645.898 529.81 637.031 533.865 631.672 536.019C626.312 538.172 622.12 540.635 622.356 541.492C622.592 542.349 621.438 542.467 619.792 541.754C618.146 541.041 616.694 541.42 616.565 542.597C616.303 545 590.817 547.453 589.275 545.224C588.732 544.438 586.475 544.523 584.26 545.413C582.045 546.303 576.216 546.529 571.307 545.915C560.373 544.549 554.948 545.342 536.455 551.016C528.517 553.451 513.985 556.326 504.162 557.404C494.341 558.481 481.846 560.265 476.397 561.368C470.948 562.472 464.122 562.635 461.228 561.733C458.335 560.829 452.345 558.939 447.919 557.531C443.492 556.124 435.517 553.737 430.196 552.228C424.876 550.719 418.065 548.753 415.062 547.86C407.47 545.602 392.452 543.58 391.198 544.647C389.895 545.755 403.333 550.475 408.154 550.601C414.694 550.774 428.805 554.754 445.469 561.127C456.87 565.487 465.085 567.398 472.124 567.325C477.721 567.267 482.799 567.437 483.41 567.701C484.02 567.966 480.759 570.713 476.162 573.807C469.014 578.615 468.648 579.345 473.636 578.838C476.844 578.512 480.791 577.321 482.408 576.19C498.884 564.665 534.569 551.662 545.155 553.326C547.645 553.717 550.709 553.164 551.963 552.096C553.969 550.39 568.434 548.594 571.049 549.727C571.587 549.96 569.526 553.276 566.469 557.096C563.412 560.916 560.356 567.15 559.677 570.951C558.999 574.75 558.191 577.994 557.881 578.159C557.572 578.324 556.222 580.998 554.882 584.102C552.221 590.265 551.374 590.422 514.694 591.521C502.028 591.9 498.977 592.761 494.555 597.202C490.47 601.306 487.022 602.531 478.59 602.87C465.139 603.412 469.484 605.874 483.202 605.483C489.565 605.302 494.965 603.745 497.93 601.235C501.32 598.365 506.141 597.319 515.409 597.442C522.447 597.535 534.578 596.906 542.368 596.044C555.526 594.588 556.63 594.099 557.947 589.148C559.707 582.532 582.451 556.257 589.561 552.627C592.445 551.153 599.363 550.045 604.933 550.163C615.78 550.393 634.375 542.905 652.838 530.875C661.076 525.507 663.809 524.752 669.829 526.186C673.775 527.125 679.896 530.189 683.432 532.994C689.508 537.812 690.359 537.932 698.9 535.177C703.872 533.574 708.659 531.649 709.538 530.901C712.745 528.172 722.701 528.453 726.733 531.386C729.886 533.681 733.446 533.728 741.706 531.586C747.667 530.041 751.853 529.37 751.007 530.097C750.161 530.822 755.176 530.477 762.149 529.329C769.123 528.181 782.805 526.417 792.554 525.408C811.727 523.424 813.494 522.773 812.225 518.166C811.241 514.595 821.26 513.87 833.132 516.652C837.097 517.581 842.795 518.227 845.796 518.088C848.798 517.948 856.96 518.768 863.935 519.91C871.704 521.181 880.661 520.977 887.055 519.382C893.124 517.87 899.617 517.664 902.567 518.891C905.358 520.053 909.736 520.79 912.298 520.53C914.859 520.27 917.532 520.892 918.238 521.913C919.736 524.079 907.601 534.383 904.879 533.254C903.867 532.834 897.223 532.137 890.116 531.705C883.008 531.273 873.401 530.619 868.765 530.251C846.642 528.5 842.237 529.925 818.975 546.363C803.517 557.285 799.793 557.721 770.55 552.027C755.826 549.16 740.616 546.837 736.751 546.864C729.977 546.913 729.69 547.143 728.824 553.235C727.639 561.564 722.113 563.751 702.15 563.789C693.044 563.806 685.324 564.05 684.994 564.331C682.732 566.256 698.149 567.124 712.267 565.866C730.513 564.239 739.428 559.561 735.039 553.915C731.718 549.642 732.329 549.673 758.483 555.107C770.701 557.645 783.099 560.193 786.033 560.768C790.732 561.689 790.299 562.566 782.407 568.107C772.201 575.276 767.835 576.789 763.18 574.773C761.385 573.996 755.339 573.933 749.742 574.634C744.146 575.334 735.005 575.317 729.428 574.595C723.853 573.874 716.249 574.197 712.533 575.314C706.191 577.22 706.575 577.33 718.785 577.093C736.793 576.744 741.318 579.109 734.257 585.178C730.047 588.796 729.869 589.707 733.544 588.796C736.246 588.127 740.84 585.381 743.754 582.693C749.663 577.242 757.089 575.421 765.488 577.363C771.001 578.638 770.628 584.711 764.949 586.159C763.582 586.507 759.363 590.793 755.573 595.681L748.682 604.569L732.187 606.09C706.611 608.448 700.858 610.326 692.245 619.122C688.061 623.395 683.093 629.711 681.204 633.156C678.411 638.25 676.817 639.357 672.671 639.08C669.868 638.893 666.596 639.525 665.401 640.484C659.93 644.878 626.947 644.824 623.899 640.418C623.202 639.411 621.046 640.96 618.905 644.006C615.655 648.628 614.457 649.071 610.201 647.228C607.488 646.053 603.922 645.434 602.279 645.852C600.635 646.272 593.236 645.024 585.836 643.079C560.248 636.357 555.227 636.149 551.16 641.644C546.691 647.685 543.665 647.789 519.681 642.734C497.061 637.967 485.506 638.038 476.464 643C468.063 647.61 467.365 647.577 449.828 641.772C441.978 639.172 433.675 636.528 431.379 635.895C429.082 635.262 424.831 633.794 421.932 632.632C419.032 631.471 411.683 630.908 405.601 631.382C394.059 632.282 388.763 630.274 362.097 614.883C353.518 609.931 353.457 609.929 359.466 614.77C366.988 620.831 365.238 622.886 354.62 620.462C350.225 619.459 347.671 619.564 348.944 620.696C350.218 621.828 357.011 623.605 364.041 624.645C371.071 625.685 380.9 628.532 385.883 630.972C392.746 634.331 397.517 635.196 405.556 634.535C411.393 634.056 416.434 634.03 416.758 634.478C417.081 634.926 417.681 635.36 418.09 635.443C421.701 636.176 431.748 639.11 439.352 641.654C444.445 643.356 452.026 645.558 456.199 646.546C463.237 648.212 463.396 648.771 458.396 654.282C451.401 661.992 443.56 663.055 423.074 659.071C414.227 657.351 403.011 655.606 398.15 655.193C393.289 654.781 387.51 653.67 385.306 652.724C383.103 651.777 376.982 650.636 371.703 650.188C366.425 649.739 359.693 648.333 356.743 647.064C353.795 645.795 350.119 645.077 348.577 645.47C347.033 645.864 339.558 644.733 331.964 642.958C309.913 637.802 303.991 637.674 298.632 642.234C295.163 645.186 289.934 646.401 279.626 646.648C265.914 646.976 236.962 644.418 232.496 642.484C231.303 641.967 227.514 642.001 224.077 642.558C220.641 643.115 219.293 643.737 221.082 643.939C222.871 644.141 230.111 645.037 237.17 645.929C244.229 646.821 255.145 648.116 261.427 648.807C267.708 649.498 273.433 650.272 274.148 650.525C280.122 652.647 294.252 650.316 301.192 646.064C305.665 643.324 310.777 641.585 312.553 642.201C314.329 642.816 316.214 643.306 316.74 643.289C317.268 643.272 320.654 644.096 324.266 645.121C327.878 646.145 335.411 647.497 341.006 648.124C354.273 649.611 418.481 661.307 429.749 664.29C442.956 667.786 455.976 665.139 465.519 657.019C471.949 651.547 474.062 650.684 476.21 652.655C477.683 654.006 485.466 656.907 493.508 659.103C501.549 661.299 509.984 663.633 512.252 664.291C517 665.666 539.434 659.846 543.974 656.061C545.858 654.488 550.007 654.281 554.803 655.52C569.158 659.229 610.474 666.907 615.298 666.761C621.006 666.589 628.715 660.554 626.788 657.768C624.5 654.46 627.739 653.366 640.537 653.124C665.114 652.659 666.426 653.84 657.077 667.999C652.494 674.941 647.884 681.776 646.834 683.189C645.783 684.603 644.949 686.021 644.98 686.342C645.011 686.664 644.456 687.598 643.745 688.417C643.034 689.238 642.653 690.633 642.897 691.518C643.14 692.403 639.584 695.165 634.994 697.656C629.197 700.8 620.127 702.676 605.306 703.795C586.413 705.221 583.917 705.884 583.543 709.575C582.83 716.618 578.613 718.216 554.636 720.531C531.551 722.76 531.496 722.778 528.499 729.285C525.815 735.11 524.447 736.009 515.671 737.715C510.267 738.765 504.684 739.12 503.261 738.504C498.217 736.319 494.987 738.041 492.011 744.503C489.709 749.5 487.744 751.249 483.704 751.897C477.521 752.889 457.587 749.095 442.477 744.051C429.05 739.568 423.508 739.809 417.237 745.146C414.479 747.492 411.124 748.937 409.781 748.355C408.437 747.773 405.485 748.874 403.22 750.802C400.378 753.22 394.554 754.269 384.436 754.186C367.94 754.049 365.659 755.459 379.569 757.194C391.996 758.745 397.872 757.571 412.796 750.556C424.342 745.129 426.474 744.834 437.57 747.13C445.363 748.743 449.952 750.521 450.385 752.092C450.818 753.665 449.69 754.487 447.234 754.388C445.13 754.304 439.843 757.269 435.486 760.976C429.11 766.402 425.702 767.771 418.032 767.989C412.789 768.139 407.651 768.983 406.614 769.866C405.577 770.748 408.036 771.237 412.078 770.951C423.19 770.166 426.093 772.399 419.366 776.558C416.147 778.548 409.326 782.767 404.205 785.935C397.615 790.013 396.037 791.741 398.8 791.852C400.947 791.938 403.918 790.976 405.401 789.714C407.082 788.283 409.1 788.337 410.758 789.859C413.516 792.387 417.44 790.833 415.474 787.99C414.862 787.104 420.272 781.171 427.498 774.807C443.529 760.686 453.169 757.259 478.185 756.785C488.032 756.599 496.863 755.786 497.811 754.979C498.759 754.173 499.702 750.963 499.905 747.848C500.271 742.239 500.42 742.177 515.01 741.478C527.524 740.878 530.206 740.06 532.797 736.047C534.477 733.448 535.264 730.474 534.547 729.438C533.194 727.482 546.709 724.881 550.252 726.415C551.342 726.888 558.713 726.616 566.63 725.812C580.32 724.422 581.273 723.996 586.03 717.14C588.781 713.174 591.441 709.983 591.94 710.05C592.438 710.117 598.035 710.2 604.376 710.237C610.717 710.274 619.16 711.078 623.138 712.025C629.984 713.656 629.988 714.278 623.214 723.706C619.279 729.182 614.816 734.635 613.296 735.823C609.933 738.45 594.733 762.948 593.051 768.451C592.386 770.628 595.589 775.872 600.169 780.103C604.75 784.335 610.266 789.468 612.426 791.509C616.762 795.606 614.907 797.706 599.648 805.98C582.076 815.508 554.312 831.903 548.831 835.987C545.959 838.128 542.89 839.567 542.009 839.185C541.129 838.804 536.398 842.657 531.494 847.747C525.691 853.77 521.189 856.947 518.603 856.843C515.744 856.728 514.386 857.826 513.764 860.757C513.16 863.596 510.443 865.936 504.79 868.48C500.33 870.487 495.171 873.489 493.324 875.15C491.475 876.81 485.854 880.92 480.83 884.281C475.807 887.643 466.555 894.007 460.272 898.424C453.989 902.841 446.557 907.173 443.757 908.051C440.957 908.929 438.024 910.879 437.241 912.385C433.586 919.406 431.48 929.077 433.101 931.398C434.086 932.809 433.82 934.875 432.51 935.99C431.2 937.105 431.147 938.914 432.391 940.011C434.094 941.514 432.369 942.608 425.401 944.442C400.147 951.089 349.445 969.183 341.723 974.303C340.974 974.799 338.951 975.348 337.224 975.524C335.498 975.699 331.592 977.964 328.545 980.557C325.498 983.15 319.145 986.522 314.426 988.052C309.709 989.582 303.368 992.275 300.336 994.039C297.305 995.802 287.453 999.87 278.442 1003.08C269.433 1006.29 260.858 1009.93 259.388 1011.18C255.539 1014.46 225.614 1024.32 222.983 1023.18C221.763 1022.65 218.115 1023.59 214.876 1025.26C211.638 1026.94 208.212 1027.97 207.263 1027.56C206.314 1027.15 200.892 1028.37 195.217 1030.28C186.792 1033.12 184.734 1034.59 184.025 1038.3C183.066 1043.31 176.609 1048.2 171.217 1047.99C169.311 1047.92 167.426 1048.4 167.026 1049.07C165.742 1051.21 150.087 1056.49 147.868 1055.53C146.688 1055.02 144.311 1055.8 142.586 1057.27C140.861 1058.73 137.19 1060.17 134.429 1060.45C131.667 1060.73 130.205 1061.3 131.179 1061.72C132.154 1062.15 128.552 1063.86 123.176 1065.53C111.58 1069.13 97.7323 1076.32 100.272 1077.42C102.506 1078.39 115.727 1073.85 119.141 1070.95C120.534 1069.76 122.837 1069.3 124.259 1069.91C125.681 1070.53 126.95 1070.07 127.078 1068.9C127.206 1067.72 128.539 1067.29 130.041 1067.94C131.543 1068.59 132.877 1068.16 133.005 1066.99C133.133 1065.81 134.246 1065.29 135.478 1065.82C138.098 1066.96 172.063 1059.34 181.606 1055.48C185.204 1054.03 189.273 1053.33 190.649 1053.92C192.026 1054.52 194.72 1053.67 196.636 1052.04C198.553 1050.41 201.22 1049.55 202.563 1050.13C206.415 1051.8 210.634 1046.92 207.681 1044.21C204.184 1041 209.912 1036.26 216.108 1037.24C218.783 1037.66 221.064 1037.15 221.177 1036.11C221.439 1033.72 239.097 1027.92 242.13 1029.24C243.375 1029.77 245.841 1028.98 247.612 1027.48C249.382 1025.97 254.794 1024.16 259.64 1023.45C264.485 1022.74 268.541 1021.32 268.652 1020.3C268.764 1019.28 270.019 1018.94 271.441 1019.56C272.864 1020.17 275.23 1019.65 276.699 1018.4C280.56 1015.12 308.532 1006.54 311.373 1007.77C312.693 1008.34 315.005 1007.76 316.511 1006.48C318.017 1005.2 322.074 1003.86 325.526 1003.51C328.978 1003.16 333.315 1001.59 335.163 1000.01C337.011 998.441 339.448 997.555 340.579 998.045C341.709 998.534 353.462 995.067 366.694 990.339C379.927 985.611 391.636 982.125 392.716 982.592C394.795 983.493 405.688 979.303 407.079 977.068C407.532 976.341 409.067 976.25 410.489 976.866C411.911 977.482 413.169 977.126 413.284 976.074C413.398 975.022 415.511 974.479 417.978 974.866C420.444 975.254 426.838 973.387 432.186 970.718C437.533 968.049 442.79 966.246 443.866 966.712C446.745 967.959 458.124 963.553 461.945 959.713C463.767 957.881 465.44 953.572 465.664 950.137C465.889 946.701 466.675 943.76 467.414 943.602C468.151 943.444 468.179 942.449 467.476 941.391C464.792 937.355 469.784 923.731 475.203 920.305C478.311 918.34 487.023 912.636 494.562 907.629C502.102 902.623 509.566 898.395 511.149 898.234C514.873 897.856 518.193 906.98 515.244 909.49C514.003 910.546 513.886 912.605 514.986 914.065C516.086 915.526 516.366 920.106 515.61 924.245C514.424 930.731 511.633 933.84 495.36 946.796C484.978 955.061 475.478 962.394 474.246 963.091C467.925 966.666 467.433 969.951 472.477 974.891C475.539 977.891 478.539 980.631 479.142 980.979C492.316 988.582 497.879 993.259 495.825 995.007C494.472 996.158 494.361 997.532 495.578 998.059C496.796 998.587 498.674 997.613 499.751 995.896C500.884 994.088 498.353 990.094 493.741 986.408C489.359 982.906 483.326 977.382 480.334 974.131L474.896 968.221L486.652 960.284C505.783 947.365 512.749 945.089 521.527 948.891C525.655 950.679 529.745 954.116 530.616 956.53C532.474 961.684 535.284 960.024 534.996 953.942C534.887 951.617 533.241 949.653 531.339 949.577C529.438 949.5 525.73 947.479 523.102 945.084C519.726 942.007 519.602 940.214 522.681 938.977C525.079 938.013 527.171 934.654 527.33 931.513C527.92 919.865 533.94 893.58 536.522 891.382C537.227 890.783 537.452 888.462 537.023 886.225C536.178 881.818 557.23 862.292 578.115 848.111C584.201 843.98 592.598 838.272 596.776 835.429C600.952 832.586 605.696 829.921 607.317 829.508C608.937 829.095 617.829 823.77 627.078 817.676C636.325 811.582 647.686 805.414 652.322 803.97C656.959 802.527 663.02 799.416 665.791 797.058C670.402 793.133 669.686 791.549 657.341 778.376C649.922 770.46 643.696 763.701 643.505 763.356C643.314 763.012 644.833 760.572 646.88 757.934C648.926 755.296 653.954 746.709 658.052 738.851C662.149 730.994 666.631 724.45 668.01 724.31C669.391 724.17 670.232 722.339 669.88 720.24C669.528 718.143 672.414 712.92 676.292 708.635C680.171 704.349 683.187 699.536 682.995 697.938C682.801 696.34 684.053 693.205 685.775 690.971C687.496 688.737 688.882 686.648 688.854 686.328C688.826 686.008 689.313 684.96 689.935 683.999C690.558 683.039 691.041 681.99 691.01 681.668C690.728 678.757 712.997 651.469 716.353 650.613C719.049 649.926 722.265 651.411 728.505 656.225C733.172 659.826 737.11 663.376 737.256 664.115C737.402 664.853 740.631 667.044 744.432 668.984C755.635 674.7 756.903 675.619 755.376 676.919C754.577 677.599 754.841 678.433 755.962 678.773C763.179 680.96 765.732 683.787 762.767 686.309C760.915 687.885 761.101 690.55 763.181 692.233C765.26 693.915 766.582 697.072 766.12 699.25C765.197 703.594 772.475 707.565 785.019 709.561C791.56 710.602 793.308 711.813 794.497 716.132C796.665 724.002 812.81 740.182 819.322 741.012C823.277 741.516 821.986 739.888 814.688 735.169C807.06 730.235 803.969 726.135 802.123 718.499C799.734 708.619 799.401 708.316 788.535 706.116C779.44 704.275 776.851 703.011 774.426 699.228C771.105 694.046 773.081 690.927 778.263 693.171C783.517 695.447 789.957 691.856 787.029 688.282C785.603 686.542 780.568 682.265 775.84 678.778C768.233 673.169 767.862 672.081 772.62 669.324C776.186 667.257 776.877 665.723 774.672 664.768C772.843 663.976 769.779 664.662 767.862 666.293C763.35 670.133 757.653 667.645 743.227 655.537C731.393 645.603 726.471 636.809 731.962 635.409C733.763 634.95 734.58 633.622 733.776 632.46C732.075 630 744.189 626.692 760.723 625.099C790.145 622.266 796.475 618.872 816.045 595.433C838.545 568.484 856.109 561.356 901.636 560.696C918.9 560.446 933.605 559.926 934.316 559.542C940.45 556.223 947.867 550.974 956.407 543.904L966.529 535.525L973.759 544.18C977.735 548.939 981.731 555.048 982.64 557.755C983.549 560.461 986.481 565.266 989.156 568.433C993.519 573.598 993.203 574.925 986.078 581.321C981.71 585.243 977.555 588.834 976.845 589.303C976.136 589.771 980.401 594.441 986.324 599.681C993.067 605.646 996.099 610.055 994.432 611.473C992.967 612.719 983.241 616.057 972.817 618.891C962.393 621.724 953.167 624.637 952.314 625.362C951.461 626.088 952.648 629.261 954.951 632.413C960.407 639.879 958.219 642.582 942.397 647.921C933.337 650.978 928.218 653.906 925.702 657.47L922.071 662.609L927.929 658.925C931.151 656.898 934.621 655.884 935.64 656.671C937.566 658.159 949.66 652.602 960.001 645.478C964.478 642.393 965.334 639.822 963.407 635.254L960.831 629.15L974.897 624.991C982.633 622.703 992.135 620.601 996.013 620.319C1002.48 619.851 1003.21 620.206 1004.79 624.607C1005.75 627.247 1004.69 630.971 1002.44 632.883C1000.19 634.796 999.452 636.836 1000.8 637.418C1005.71 639.545 1010.85 631.501 1009.69 623.503L1008.5 615.288L1016.99 614.612C1023.87 614.065 1026.48 612.723 1030.71 607.556C1033.58 604.047 1036.4 601.381 1036.98 601.631C1037.56 601.882 1039.44 606.637 1041.16 612.198C1044.51 623.019 1042.48 632.02 1036.75 631.789C1034.89 631.715 1032.5 632.392 1031.44 633.296C1030.37 634.199 1030.74 634.812 1032.26 634.658C1033.77 634.505 1035.61 635.761 1036.35 637.449C1037.38 639.808 1038.36 639.952 1040.57 638.068C1042.15 636.72 1045.37 635.918 1047.72 636.287C1050.07 636.656 1058.57 635.589 1066.62 633.916C1077.95 631.559 1081.67 629.922 1083.12 626.652C1084.59 623.325 1086.66 622.477 1092.9 622.65C1104.34 622.967 1116.01 626.133 1115.72 628.842C1115.58 630.112 1118.41 632.443 1122.01 634.021C1133.21 638.928 1133.83 642.295 1124.28 646.181C1117.18 649.066 1116.44 649.922 1119.05 652.242C1120.72 653.727 1122.92 658.465 1123.94 662.771C1124.96 667.076 1125.71 668.907 1125.61 666.838C1125.51 664.77 1126.02 662.566 1126.76 661.94C1127.49 661.315 1128.1 657.853 1128.1 654.247C1128.11 648.918 1129.48 647.101 1135.44 644.544C1142.34 641.579 1142.39 641.009 1136.25 634.726C1132.66 631.057 1130.33 627.539 1131.07 626.909C1133.8 624.586 1146.71 625.02 1162.05 627.952C1179.43 631.274 1180.11 631.231 1188.47 626.294C1197.02 621.239 1199.45 621.028 1205.41 624.818C1212.9 629.58 1211.08 634.227 1197.98 643.751C1189.19 650.146 1186.78 653.125 1186.99 657.328C1187.22 661.905 1185.46 663.822 1175.2 670.122C1168.57 674.197 1160.34 680.846 1156.91 684.898C1153.48 688.95 1148.48 694.838 1145.8 697.983C1138.94 706.025 1135.63 710.269 1135.69 710.946C1135.72 711.266 1135.31 712.094 1134.78 712.788C1134.25 713.481 1133.66 714.987 1133.46 716.134C1133.27 717.282 1130.99 719.816 1128.39 721.767C1125.79 723.718 1117.46 730.334 1109.87 736.47L1096.08 747.626L1076.62 747.73C1065.91 747.787 1056.57 747.615 1055.87 747.349C1055.17 747.083 1049.62 746.863 1043.54 746.862C1034.36 746.86 1030.09 745.66 1018.41 739.801C1005.15 733.149 1003.92 732.888 997.085 735.283C993.098 736.681 988.361 737.284 986.561 736.623C968.392 729.956 951.527 716.977 956.041 713.135C957.447 711.939 955.724 707.606 952.214 703.507L945.832 696.053L946.243 703.884C946.795 714.369 943.235 716.9 931.885 714.092C926.781 712.829 922.011 711.378 921.285 710.868C920.557 710.359 917.229 710.38 913.886 710.917C908.484 711.784 908.644 712.05 915.321 713.316C929.917 716.083 942.208 720.315 948.097 724.599C955.546 730.019 980.429 742.312 987.074 743.856C989.807 744.49 994.188 744.033 996.808 742.84C1000.38 741.211 1003.89 741.675 1010.88 744.7C1022.69 749.817 1023.04 753.417 1012.48 761.216C1007.83 764.65 1001.89 771.744 999.277 776.98C995.168 785.228 993.922 786.405 989.962 785.783C979.238 784.098 948.315 798.753 925.577 816.297C921.659 819.32 916.872 821.498 914.938 821.138C905.152 819.314 876.414 821.514 870.821 824.517C850.784 835.271 823.077 845.185 810.821 845.985C809.587 846.066 802.248 847.358 794.513 848.857C777.261 852.201 761.875 853.871 759.159 852.694C758.041 852.21 754.582 852.222 751.473 852.721C746.842 853.465 746.536 853.939 749.782 855.345C755.72 857.917 740.196 870.355 726.672 873.861C720.895 875.359 717.269 877.06 718.612 877.641C723.006 879.545 741.917 873.373 748.302 867.952C754.437 862.743 783.368 854.23 788.047 856.257C789.207 856.76 796.582 855.424 804.437 853.288C812.292 851.153 819.424 849.729 820.288 850.123C821.152 850.518 822.915 855.058 824.207 860.211C826.354 868.775 825.689 870.324 816.482 878.233C810.942 882.992 806.599 887.571 806.829 888.408C807.06 889.245 812.714 885.279 819.395 879.594C830.869 869.83 831.435 868.734 829.632 859.799C827.376 848.617 829.31 847.13 860.805 835.826C881.999 828.219 894.061 825.104 894.61 827.095C894.757 827.632 902.025 827.532 910.761 826.873C925.228 825.782 927.413 825.012 935.285 818.232C950.556 805.079 977.593 793.171 997.634 790.77C1006.99 789.649 1007.24 789.47 1015.76 777.365C1033.11 752.711 1032.35 753.192 1054.39 752.764C1081.83 752.23 1086.4 753.486 1087.5 761.874C1088.67 770.742 1091.88 774.365 1105.3 781.949C1117.9 789.067 1118.42 791.423 1108.71 797.373C1103.59 800.514 1101.84 803.34 1102.19 807.906C1102.46 811.339 1101.92 814.787 1101.01 815.567C1100.09 816.348 1099.54 819.635 1099.79 822.872C1100.04 826.109 1099.17 829.676 1097.85 830.798C1096.53 831.92 1094.24 836.867 1092.76 841.79C1090.13 850.565 1089.91 850.769 1081.65 852.032C1077.01 852.741 1070.29 853.367 1066.71 853.423C1059.95 853.528 1051.51 859.79 1051.69 864.576C1051.74 866.051 1049.97 869.309 1047.74 871.816C1044.41 875.575 1041.16 876.379 1029.22 876.402C1021.26 876.417 1014.01 877.053 1013.11 877.816C1012.22 878.579 1009.97 878.546 1008.12 877.744C1003.73 875.841 988.104 881.819 982.906 887.392C980.177 890.319 975.172 892.216 967.722 893.149C961.61 893.914 955.863 895.176 954.951 895.952C954.04 896.727 956.386 896.747 960.165 895.995C966.784 894.678 966.982 894.756 965.564 898.127C964.35 901.014 965.905 900.905 974.458 897.505C980.16 895.238 987.632 890.825 991.063 887.696C994.494 884.568 998.199 882.397 999.296 882.872C1000.39 883.347 1011.96 882.916 1025.01 881.914L1048.72 880.092L1056.7 869.69C1063.51 860.819 1065.86 859.009 1072.7 857.392C1083.03 854.953 1086.11 856.368 1081 861.208C1070.91 870.771 1064.24 877.485 1064.29 878.021C1064.41 879.281 1059.42 885.916 1052.92 893.126C1047.15 899.52 1043.72 901.33 1030.79 904.796C1012.13 909.795 1011.72 910.083 1011.42 918.326C1011.29 921.961 1010.33 926.076 1009.29 927.472C1007.06 930.461 1004.2 940.527 1004.13 945.621C1004.1 948.414 1001.01 950.224 990.118 953.839C978.888 957.566 976.07 959.253 975.747 962.442C975.27 967.159 970.947 968.12 935.355 971.428C916.282 973.2 910.474 974.569 906.054 978.33C903.021 980.911 901.101 983.832 901.786 984.822C902.485 985.832 897.249 989.028 889.869 992.098C876.076 997.836 874.897 1000.79 887.967 996.857C899.483 993.396 905.202 997.453 896.071 1002.6C894.838 1003.3 889.748 1008.26 884.76 1013.63C876.906 1022.09 876.26 1024 879.94 1027.87L884.191 1032.33L884.552 1026.79C884.802 1022.96 888.773 1017.91 897.406 1010.45C908.382 1000.96 909.616 998.979 907.574 994.163C906.297 991.149 906.723 986.491 908.523 983.813C911.358 979.593 914.04 978.813 928.611 977.971C937.86 977.436 951.806 976.511 959.602 975.916C967.398 975.32 974.311 975.605 974.964 976.549C976.823 979.237 969.021 984.8 961.342 986.261C951.694 988.096 945.961 993.423 949.27 997.481C950.792 999.348 953.544 1006.11 955.385 1012.51C957.226 1018.91 959.408 1024.44 960.235 1024.8C962.687 1025.86 961.965 1013.43 959.002 1003.56L956.248 994.382L966.663 992.2C980.364 989.329 984.705 985.275 987.573 972.677C989.902 962.447 990.15 962.177 1000.34 958.733C1010.07 955.444 1010.94 954.706 1014.15 947.059C1016.04 942.569 1017.47 937.334 1017.32 935.426C1016.92 930.11 1021.29 917.903 1024.59 915.09C1026.22 913.708 1032.06 911.631 1037.58 910.475C1045.58 908.797 1049.23 906.698 1055.67 900.069C1060.11 895.502 1063.56 891.689 1063.34 891.595C1061.94 890.988 1081.65 871.504 1090.48 864.757C1101.77 856.142 1106.46 863.589 1096.78 874.753C1094.45 877.436 1089.56 884.882 1085.9 891.298C1082.25 897.714 1076.88 905.483 1073.98 908.562C1064.22 918.922 1064.26 925.42 1074.13 930.977C1079 933.718 1089.19 937.314 1096.77 938.969C1107.29 941.263 1111.33 942.917 1113.79 945.927C1118.15 951.273 1114.01 961.106 1104.46 968.123C1095.47 974.723 1095.22 975.637 1100.3 983.261C1102.34 986.323 1102.58 989.192 1100.84 989.636C1095.55 990.984 1072.87 1011.47 1073.63 1014.22C1074.11 1015.95 1075.92 1014.84 1079.2 1010.81C1081.87 1007.53 1089.23 1001.43 1095.55 997.263C1106.38 990.116 1107.37 989.864 1112.78 992.858C1115.93 994.605 1118.12 997.876 1117.63 1000.13C1117.15 1002.38 1116.46 1008.12 1116.11 1012.89C1115.67 1018.84 1113.2 1023.39 1108.23 1027.38C1104.25 1030.58 1101.36 1034.58 1101.81 1036.27C1102.44 1038.67 1103.67 1038.22 1107.41 1034.22C1121.74 1018.87 1122.89 1016.78 1127.93 996.756C1128.35 995.091 1123.54 989.485 1117.25 984.297L1105.8 974.864L1117.81 965.277C1129.19 956.187 1129.68 955.281 1127.21 947.829C1125.77 943.506 1123.53 940.076 1122.24 940.208C1118.94 940.542 1112.6 938.668 1095.74 932.381C1078.53 925.961 1071.46 921.318 1076.08 919.462C1077.91 918.724 1079.18 917.137 1078.88 915.936C1078.58 914.734 1081.49 910.356 1085.34 906.208C1089.19 902.06 1092.43 897.928 1092.55 897.026C1092.66 896.124 1095.93 891.753 1099.8 887.312C1110.17 875.412 1111.48 867.356 1104.5 858.516C1101.13 854.241 1099.19 849.863 1100.2 848.786C1101.21 847.711 1102.02 846.569 1101.99 846.249C1101.96 845.929 1103.21 844.009 1104.76 841.981C1106.31 839.954 1108.16 834.716 1108.87 830.341C1112.28 809.505 1114.55 804.093 1121.82 799.466C1125.85 796.904 1136.17 789.708 1144.76 783.475L1160.37 772.142L1155.41 764.974C1152.69 761.032 1150.97 757.358 1151.61 756.811C1152.24 756.263 1151.24 748.804 1149.39 740.236C1147.05 729.449 1147.55 721.288 1151.01 713.703C1153.76 707.678 1156.87 702.29 1157.92 701.731C1158.98 701.171 1162.73 697.144 1166.25 692.783C1171.42 686.393 1175.39 683.819 1186.72 679.535C1204.65 672.751 1211.58 666.974 1207.62 662.118C1203.93 657.59 1215.76 646.129 1222.95 647.26C1232.61 648.778 1240.88 666.926 1235.44 674.668C1233.59 677.301 1233.21 680.843 1234.6 682.539C1236.64 685.032 1254.87 692.94 1265.88 696.111C1275.28 698.817 1283.48 704.97 1289.32 713.697C1296.67 724.677 1298.67 745.168 1293.1 752.455C1290.5 755.858 1291.74 759.341 1298.24 766.885C1308.52 778.796 1309.54 781.728 1305.3 787.213C1303.52 789.514 1302.23 791.468 1302.43 791.556C1302.64 791.643 1301.91 792.912 1300.82 794.375C1294.06 803.425 1281.92 828.533 1283.89 829.386C1285.19 829.95 1287.04 830.795 1288.01 831.264C1290.79 832.612 1283.99 844.779 1275.03 854.503C1267.83 862.308 1267.26 864.607 1270.31 873.371C1274.71 885.996 1283.98 901.023 1288.62 903.029C1291.42 904.243 1290.04 906.055 1282.14 911.579C1272.16 918.546 1272.14 918.638 1277.68 926.73C1280.75 931.209 1283.42 935.252 1283.61 935.716C1283.79 936.18 1281.71 938.918 1278.98 941.802C1276.25 944.686 1274.17 947.11 1274.35 947.191C1274.54 947.271 1273.55 948.855 1272.15 950.71C1270.75 952.565 1267.56 957.225 1265.06 961.066C1261.11 967.149 1261.91 966.674 1271.22 957.385C1278.43 950.185 1282.37 947.389 1283.33 948.782C1284.12 949.916 1283.85 951.65 1282.74 952.634C1280.81 954.34 1280.56 966.751 1282.48 965.255C1286.37 962.231 1290.67 945.64 1288.52 941.956C1287.03 939.393 1287.71 935.795 1290.06 933.79C1292.98 931.306 1292.85 928.524 1289.65 924.732C1285.86 920.244 1286.12 918.331 1291.08 914.107C1294.41 911.274 1298.05 909.237 1299.16 909.58C1317.39 915.184 1325.86 922.147 1320.25 926.919C1318.8 928.149 1318.85 930.281 1320.35 931.656C1321.85 933.031 1321.93 937.216 1320.52 940.955C1319.12 944.694 1319 947.649 1320.26 947.522C1328.68 946.666 1325.62 907.912 1317.1 907.57C1310.4 907.3 1308.42 900.72 1313.5 895.619C1319.79 889.297 1318.79 887.739 1302.73 878.925C1285.93 869.697 1280.26 861.497 1285.74 854.349C1288.08 851.304 1291.16 847.304 1292.59 845.46C1294.01 843.616 1296.43 840.936 1297.96 839.504C1299.48 838.071 1299.5 832.777 1297.98 827.737C1296.47 822.698 1296.71 816.966 1298.52 814.998C1300.33 813.03 1301.63 811.344 1301.42 811.251C1301.2 811.158 1301.84 809.924 1302.83 808.509C1303.83 807.094 1307.23 802.141 1310.4 797.504C1313.56 792.866 1316.93 788.993 1317.89 788.895C1322.61 788.416 1330.17 796.995 1330.16 802.825C1330.15 811.817 1332.88 810.833 1335.7 800.827C1338.17 792.062 1335.59 786.901 1326.86 783.117C1317.29 778.972 1300.79 758.055 1302.9 752.739C1309.04 737.274 1309.46 733.301 1306.06 723.006C1299.91 704.339 1294.99 700.05 1268.07 689.865L1244.88 681.093L1249.04 673.682C1251.33 669.606 1252.47 664.231 1251.57 661.738C1249.81 656.85 1238.87 646.654 1232.25 643.734C1230.01 642.745 1227.7 640.471 1227.12 638.68C1226.53 636.888 1222.31 629.318 1217.74 621.856C1213.17 614.394 1209.4 604.204 1209.37 599.21C1209.3 589.767 1213.75 584.773 1237.79 567.324C1245.49 561.733 1246.51 559.909 1244.44 555.386L1242.01 550.049L1255.09 548.72C1270.34 547.171 1274.53 548.468 1275.48 555.034C1275.87 557.661 1279.09 561.073 1282.66 562.615C1287.12 564.547 1290.01 568.926 1291.96 576.698C1294.75 587.777 1297.15 589.675 1310.6 591.456C1315.23 592.069 1316.82 593.764 1317.24 598.528C1317.9 606.075 1323.01 606.437 1323.49 598.972C1323.99 591.38 1319.44 586.514 1312.14 586.838C1307.17 587.059 1305.8 584.878 1303.39 572.913C1301.63 564.19 1299.13 559.082 1296.9 559.65C1294.36 560.297 1291.87 558.781 1288.58 554.591C1282.08 546.297 1282.43 545.218 1294.64 535.754C1306.06 526.911 1306.22 523.6 1295.44 518.933C1292.81 517.794 1291.19 515.613 1291.84 514.088C1293.69 509.75 1313.14 497.533 1316.31 498.716C1317.88 499.3 1321.75 500.395 1324.92 501.148C1328.09 501.902 1334.37 503.61 1338.89 504.944C1343.4 506.277 1351.75 507.932 1357.45 508.623C1367.08 509.789 1367.97 510.297 1370.16 515.838C1371.45 519.117 1371.56 522.608 1370.4 523.597C1367.67 525.918 1371.82 529.64 1382.08 534.086C1388.8 536.994 1390.47 539.494 1391.41 547.995C1392.78 560.391 1394.19 561.903 1407.67 565.34C1417.63 567.884 1417.9 568.198 1414.31 573.059C1412.12 576.019 1412.1 579.744 1414.26 582.016C1416.29 584.156 1416.59 588.479 1414.93 591.622L1411.9 597.337L1418.47 591.578C1423.69 587.006 1424.24 584.969 1421.12 581.693C1418.5 578.94 1418.64 576.652 1421.52 574.814C1425.21 572.471 1427.19 572.755 1434.84 576.72C1439.79 579.283 1445.81 583.176 1448.22 585.372C1450.63 587.568 1453.45 589.279 1454.47 589.175C1461.02 588.509 1430.71 566.218 1412.03 557.959C1402.67 553.825 1401.72 552.496 1401.67 543.533C1401.63 534.278 1401 533.473 1391.7 530.669C1382.65 527.938 1381.81 526.998 1382.03 519.859C1382.44 506.641 1378.61 504.601 1339.03 496.981C1336.55 496.504 1329.61 494.394 1323.6 492.292C1314.83 489.223 1312.36 487.317 1311.03 482.609C1310.12 479.385 1304.14 470.982 1297.73 463.934C1286.78 451.876 1286.46 450.916 1292.29 447.65C1302.87 441.719 1305.74 435.073 1299.98 429.851C1296.24 426.46 1295.63 422.073 1297.83 414.476C1299.53 408.63 1300.93 402.243 1300.95 400.283C1300.97 397.555 1303.27 395.979 1310.76 393.562C1321.14 390.214 1328.49 385.191 1327.62 382.037C1327.33 380.989 1327.65 379.658 1328.33 379.081C1329.01 378.502 1328.47 373.668 1327.13 368.338C1324.68 358.564 1325.58 355.237 1330.13 357.209C1333.39 358.62 1352.77 353.551 1356.63 350.277C1358.37 348.804 1357.17 344.817 1353.81 340.889C1347.78 333.849 1343.7 322.918 1344.16 315.06C1344.52 308.979 1366.87 287.131 1375.46 284.465C1379.12 283.329 1389.3 281.185 1398.09 279.7C1412.86 277.206 1414.86 276.285 1424.38 267.594C1434.44 258.405 1443.92 248.763 1443.19 248.449C1442.99 248.363 1444.88 245.958 1447.38 243.105C1453.22 236.448 1457.43 236.725 1463.71 244.178C1466.49 247.472 1472.81 253.669 1477.76 257.949C1486.42 265.447 1486.55 266.185 1481.19 278.146C1476.66 288.243 1476.63 290.515 1480.99 290.322C1483.93 290.191 1485.76 290.581 1485.05 291.188C1484.33 291.795 1486.19 292.184 1489.18 292.051C1493.47 291.86 1494.71 292.991 1495.05 297.421C1495.39 301.789 1498.64 304.829 1509.72 311.13L1523.96 319.228L1517.3 325.854L1510.65 332.481L1529.16 340.852C1539.34 345.457 1549.56 349.915 1551.86 350.76C1554.57 351.752 1554.81 355.205 1552.53 360.507C1549.03 368.654 1549.09 368.74 1559.37 371.363C1565.07 372.817 1570.19 374.661 1570.74 375.46C1571.29 376.26 1573.12 376.563 1574.8 376.134C1579.85 374.849 1593.1 383.034 1599.74 391.528C1604.1 397.106 1605.01 401.36 1602.79 405.742C1601.01 409.274 1601.35 413.526 1603.57 415.516C1606.26 417.916 1606.06 420.277 1602.94 422.933C1600.42 425.076 1598.35 429.5 1598.35 432.764C1598.34 436.028 1597.72 439.267 1596.95 439.962C1596.19 440.657 1595.79 441.995 1596.07 442.934C1596.78 445.375 1605.51 435.629 1605.48 432.427C1605.47 430.895 1608.08 428.972 1611.63 427.904C1620.21 425.327 1626.57 431.246 1623.93 439.35C1622.82 442.765 1623.68 446.075 1625.85 446.705C1628.02 447.334 1629.56 449.648 1629.28 451.847C1628.22 459.874 1630.88 466.904 1637.35 473.239C1641 476.803 1644.6 479.989 1645.36 480.318C1647.34 481.177 1644 472.509 1640.03 466.494C1638.17 463.684 1636.78 457.811 1636.94 453.443C1637.09 449.075 1635.85 444.902 1634.18 444.169C1632.51 443.437 1632.96 441.109 1635.19 438.998C1641.21 433.295 1641.87 432.353 1641.31 430.329C1640.88 428.746 1630.05 422.812 1614.3 415.533C1610.05 413.566 1611.73 405.913 1617.69 400.097C1621.57 396.318 1620.1 393.389 1612.71 390.142C1609.63 388.788 1603.94 384.352 1600.07 380.285C1593.56 373.44 1592.05 372.71 1579.86 370.519C1563.71 367.616 1561.35 365.667 1566.13 359.2L1569.86 354.168L1546.37 343.843C1533.45 338.165 1522.76 333.109 1522.63 332.607C1522.49 332.105 1523.56 330.257 1525.02 328.5C1526.47 326.743 1527.78 324.1 1527.93 322.627C1528.08 321.154 1529.15 320.286 1530.3 320.7C1536.84 323.04 1523.93 313.912 1515.13 309.968C1506.69 306.186 1504.31 303.804 1503.01 297.828C1501.57 291.237 1500.42 290.237 1492.84 289.032C1483.55 287.553 1481.78 285.384 1485.69 280.23C1487.07 278.396 1488.72 275.435 1489.35 273.648C1489.97 271.862 1491.4 269.311 1492.53 267.98C1495.78 264.128 1494.06 258.176 1489.07 256.013C1474.37 249.649 1464.68 220.607 1472.96 207.758C1475.92 203.162 1476.77 198.384 1475.01 196.222C1473.35 194.192 1472.84 191.816 1473.86 190.943C1474.89 190.07 1475.41 185.44 1475.01 180.654C1474.61 175.868 1475.02 169.857 1475.91 167.296C1476.79 164.735 1478.24 158.531 1479.13 153.51C1480.86 143.688 1480.36 144.084 1515.54 124.292C1533.46 114.207 1539.14 110.054 1537.74 108.039C1537.07 107.059 1537.79 102.26 1539.36 97.3764C1542.71 86.9079 1548.74 83.0159 1573.25 75.4879C1606.35 65.3218 1619.03 53.5929 1628.89 24.0462C1632.39 13.5503 1638.44 5.24859 1641.58 6.6124C1642.9 7.18395 1652.72 5.42162 1663.4 2.69535C1674.07 -0.0310484 1685.17 -2.52328 1688.06 -2.84343C1695.52 -3.67153 1720.5 -10.77 1727.76 -14.1276C1731.13 -15.6864 1736.47 -17.2235 1739.62 -17.5428C1742.77 -17.863 1747.25 -19.7446 1749.57 -21.725C1753.69 -25.2325 1753.31 -25.5417 1734.6 -33.6442L1715.39 -41.9625L1702.71 -39.0663ZM1213.78 157.179C1209.05 158.298 1200.1 158.261 1193.89 157.098C1186.9 155.787 1175.02 156.076 1162.65 157.856L1142.69 160.73L1161.78 160.163C1172.28 159.851 1182.25 159.303 1183.93 158.944C1185.6 158.585 1188.75 159.433 1190.92 160.828C1194.12 162.878 1193.42 164.445 1187.31 168.99L1179.74 174.616L1189.39 171.528C1197.06 169.071 1198.95 167.728 1198.62 164.972C1198.28 162.142 1200.18 161.397 1208.99 160.911C1214.92 160.583 1220.37 159.152 1221.09 157.73C1222.02 155.882 1219.94 155.725 1213.78 157.179ZM1350.76 224.823C1350.65 225.803 1348.6 229.107 1346.19 232.165C1343.79 235.224 1341.72 238.605 1341.61 239.679C1341.49 240.753 1337.92 241.613 1333.67 241.591C1329.42 241.569 1324.82 242.514 1323.44 243.69C1320.77 245.956 1316.5 244.87 1304.45 238.86C1299.73 236.508 1292.81 235.203 1285.46 235.279C1277.8 235.358 1271.38 234.099 1266.46 231.555C1260.57 228.508 1255.89 228.001 1243.88 229.111C1222.36 231.1 1219.02 229.049 1232.2 221.944C1238.79 218.389 1243.88 216.935 1246.2 217.941C1248.2 218.81 1257.08 220.95 1265.93 222.695C1278.08 225.093 1284.65 225.199 1292.78 223.125C1298.7 221.616 1304.11 221.193 1304.8 222.186C1306.06 224.011 1309.16 222.469 1313.6 217.801C1315.3 216.011 1320.7 216.23 1331.66 218.534C1350.81 222.556 1351 222.619 1350.76 224.823ZM1176.64 210.005C1168.51 210.077 1157.7 208.761 1152.63 207.08C1143.98 204.216 1144.04 204.323 1153.62 208.809C1161.67 212.577 1165.9 213.335 1173.52 212.378C1178.84 211.711 1187.78 212.15 1193.39 213.355C1202.22 215.253 1202.77 215.167 1197.5 212.711C1194.15 211.152 1184.77 209.934 1176.64 210.005ZM1332.07 336.852C1337.13 342.843 1332.48 349.029 1322.59 349.468C1312.63 349.911 1310.74 354.237 1313.95 369.185C1317.05 383.608 1317.05 383.618 1307.79 387.105C1302.7 389.025 1295.23 391.303 1291.2 392.169C1284.51 393.607 1283.91 394.403 1284.28 401.432C1284.51 405.661 1283.76 408.721 1282.63 408.232C1281.5 407.742 1281.81 409.454 1283.32 412.036C1287.49 419.197 1281.68 418.937 1266.13 411.266L1252.04 404.316L1238.08 407.978C1227.11 410.856 1221.52 411.069 1211.98 408.976C1205.3 407.512 1194.77 406.528 1188.56 406.79L1177.28 407.265L1193.81 408.881C1202.9 409.769 1212.74 411.532 1215.67 412.798C1220.84 415.029 1239.12 412.66 1243.14 409.238C1245.16 407.514 1249.62 408.828 1260.93 414.483C1295.65 431.844 1295.65 431.853 1278.84 444.862L1270.3 451.469L1283.89 467.6C1303.07 490.361 1302.93 489.732 1291.42 501.529C1281.95 511.234 1280.72 516.838 1286.86 522.308C1289.13 524.333 1282.49 530.836 1272.26 536.616C1266.36 539.95 1257.67 542.114 1245.39 543.306C1235.41 544.275 1226.7 545.529 1226.04 546.093C1225.38 546.657 1226 550.007 1227.43 553.537C1229.8 559.426 1229.03 560.761 1218.05 569.715C1208.77 577.281 1204.57 579.485 1199.37 579.522C1195.68 579.548 1193.57 579.964 1194.69 580.446C1195.8 580.928 1190.82 581.542 1183.63 581.81C1176.44 582.079 1165.43 582.848 1159.17 583.521C1152.91 584.194 1146.22 584.067 1144.31 583.239C1142.4 582.411 1138.31 582.139 1135.23 582.634C1132.14 583.129 1129.13 582.83 1128.53 581.968C1127.93 581.107 1126.5 581.919 1125.33 583.772C1123.97 585.951 1120.86 586.958 1116.55 586.621C1112.88 586.333 1107.98 586.861 1105.66 587.794C1101.98 589.273 1102.35 589.495 1108.58 589.528C1112.51 589.549 1120.14 588.78 1125.54 587.821C1132.04 586.667 1137.69 587.084 1142.24 589.053C1148.09 591.588 1148.46 592.8 1144.72 597.229C1141.25 601.337 1138.15 602.565 1129.97 603.077C1124.28 603.433 1120.71 604.227 1122.03 604.84C1127.08 607.173 1147.21 604.231 1148.38 600.99C1151.46 592.479 1169.74 585.768 1184.74 587.641C1193.41 588.725 1194.02 589.325 1196.51 599.272C1198.92 608.919 1195.74 616.699 1190.33 614.358C1189.1 613.823 1185.09 615.031 1181.42 617.043C1175.99 620.021 1160.24 621.698 1153.97 619.965C1149.01 618.592 1132.32 617.583 1128.86 618.446C1126.56 619.017 1123.26 618.868 1121.53 618.115C1119.79 617.361 1114.91 617.204 1110.68 617.766C1106.46 618.327 1099.24 617.811 1094.64 616.62C1084.49 613.99 1072.31 617.462 1071.73 623.149C1071.49 625.567 1069.51 627.408 1066.12 628.381C1063.24 629.207 1061.48 630.143 1062.22 630.463C1062.96 630.783 1059.44 631.463 1054.41 631.974C1048.41 632.583 1045.64 632.142 1046.37 630.692C1046.99 629.477 1047.63 623.633 1047.8 617.708C1047.96 611.783 1049.09 606.834 1050.31 606.711C1055.54 606.179 1044.83 598.087 1027.11 589.178C1011.85 581.506 1006.42 577.554 1000.29 569.637C996.067 564.179 993.319 559.108 994.187 558.369C995.056 557.63 993.173 553.941 990.002 550.17C979.892 538.148 976.633 507.247 985.002 502.758C985.803 502.329 985.694 499.86 984.761 497.273C983.828 494.686 984.557 491.299 986.382 489.746C988.207 488.194 988.116 486.86 986.18 486.782C981.458 486.592 984.491 484.211 990.192 483.633C993.452 483.302 993.998 481.917 992.131 478.714C990.702 476.263 990.492 473.79 991.664 473.219C994.984 471.601 1001.3 457.924 1000.64 453.774C1000.31 451.723 1001.16 448.568 1002.53 446.764C1003.9 444.96 1005.96 441.057 1007.11 438.091C1008.26 435.124 1010.31 431.755 1011.66 430.604C1013.01 429.452 1016.58 422.889 1019.59 416.018C1025.39 402.765 1027.14 400.327 1029.75 401.882C1030.64 402.416 1032.39 403.046 1033.63 403.284C1034.87 403.522 1036.95 404.053 1038.26 404.464C1039.56 404.875 1051 404.168 1063.69 402.893C1076.37 401.617 1092.3 400.271 1099.08 399.902C1108.8 399.373 1112.02 398.316 1114.2 394.942C1116.64 391.169 1120.64 390.584 1147.42 390.08C1164.17 389.765 1178.43 389.034 1179.09 388.455C1179.76 387.877 1180.88 384.889 1181.59 381.817C1182.82 376.467 1183.4 376.22 1195.26 375.99C1202.07 375.858 1208.91 376.3 1210.46 376.972C1214.31 378.64 1229.49 376.95 1232.32 374.538C1233.59 373.462 1233.97 368.949 1233.16 364.51C1232.36 360.071 1232.87 356.143 1234.29 355.781C1235.71 355.42 1235.8 353.752 1234.5 352.076C1232.46 349.455 1234.31 348.748 1247.7 347.031C1256.27 345.932 1263.78 344.609 1264.4 344.089C1265.02 343.571 1272.33 342.209 1280.66 341.063C1288.98 339.917 1301.96 336.872 1309.51 334.295C1317.05 331.719 1324.2 330.029 1325.38 330.54C1326.56 331.051 1329.57 333.892 1332.07 336.852ZM1225.64 302.071C1223.73 303.85 1223.89 304.452 1226.06 303.606C1228.03 302.842 1229.44 301.525 1229.21 300.681C1228.98 299.837 1227.37 300.463 1225.64 302.071ZM1170.01 286.445C1168.45 287.77 1186.32 310.858 1188.71 310.614C1189.94 310.49 1191.56 311.795 1192.3 313.514C1193.05 315.233 1194.67 316.538 1195.91 316.413C1197.71 316.23 1190.08 306.78 1172.14 286.979C1171.48 286.249 1170.52 286.009 1170.01 286.445ZM949.304 212.401C943.15 211.59 943.109 211.647 948.15 213.982C951.026 215.314 954.842 216.031 956.63 215.575C960.476 214.594 958.086 213.559 949.304 212.401ZM987.395 296.019C985.607 296.475 985.243 297.324 986.586 297.906C987.929 298.487 990.491 298.59 992.28 298.134C994.068 297.679 994.432 296.829 993.089 296.248C991.746 295.666 989.184 295.563 987.395 296.019ZM853.714 361.17C854.8 362.833 858.502 365.328 861.941 366.714L868.193 369.233L863.483 365.401C860.892 363.294 857.19 360.799 855.256 359.858C852.13 358.337 851.959 358.482 853.714 361.17ZM939.023 452.854C938.831 455.804 937.052 459.596 935.072 461.282C933.092 462.966 932.638 465.416 934.065 466.724C935.491 468.032 935.829 470.658 934.818 472.56C933.806 474.462 933.296 477.42 933.684 479.133C934.584 483.118 930.431 496.591 927.544 499.048C926.331 500.08 925.704 502.252 926.151 503.874C926.598 505.497 925.322 508.591 923.316 510.751C919.846 514.488 914.928 514.908 905.238 512.297C896.179 509.856 891.789 510.089 882.764 513.488C875.378 516.271 868.967 516.661 855.239 515.164C845.397 514.09 835.949 513.567 834.245 514.001C832.54 514.436 830.615 514.026 829.968 513.09C829.321 512.154 827.305 511.768 825.487 512.231C823.669 512.695 821.225 512.659 820.054 512.152C817.461 511.029 825.945 506.881 848.534 498.227C858.251 494.505 865.079 490.877 864.349 489.822C862.959 487.812 866.699 476.491 870.904 469.984C872.787 467.067 874.561 466.404 877.3 467.59C879.384 468.493 886.997 467.658 894.217 465.735C905.362 462.767 907.908 461.304 911.071 456.046C913.121 452.639 915.861 449.744 917.159 449.613C918.458 449.481 919.35 447.958 919.142 446.229C918.85 443.804 920.461 443.335 926.186 444.182C937.627 445.872 939.401 447.071 939.023 452.854ZM1114.99 579.463C1113.15 579.932 1113.84 580.605 1116.6 581.041C1121.99 581.887 1124.02 581.16 1120.5 579.638C1119.24 579.091 1116.76 579.012 1114.99 579.463ZM410.292 304.173C400.239 302.114 398.95 302.236 401.911 304.973C403.99 306.894 406.508 307.722 408.114 307.012C409.6 306.355 412.923 306.73 415.497 307.845C418.072 308.96 420.962 309.205 421.92 308.39C422.879 307.574 423.328 306.839 422.918 306.757C422.509 306.674 416.827 305.511 410.292 304.173ZM1024.54 602.562C1023.32 606.383 1022.11 607.35 1019.21 606.811C1017.16 606.427 1014.03 607.336 1012.28 608.831C1007.6 612.814 1002.19 611.097 995.61 603.54C992.41 599.863 988.19 596.161 986.232 595.313C983.531 594.144 984.676 592.345 990.975 587.859C995.54 584.607 999.394 581.918 999.536 581.883C999.679 581.849 1005.72 585.374 1012.96 589.718C1023.89 596.27 1025.86 598.457 1024.54 602.562ZM1139.09 742.392C1140.22 749.193 1142.24 758.364 1143.58 762.773C1146 770.756 1143.95 773.832 1131 781.624C1123.75 785.982 1122.05 785.308 1109.19 772.97C1100.53 764.664 1099.43 762.044 1101.7 755.193C1103.17 750.774 1105.14 747.495 1106.1 747.907C1107.05 748.319 1110.98 745.467 1114.83 741.57C1122.3 734.012 1132.35 727.944 1135.26 729.241C1136.24 729.674 1137.96 735.592 1139.09 742.392ZM1298.5 884.261C1301.9 886.534 1305.02 889.637 1305.44 891.157C1306.32 894.357 1301.08 899.477 1298.2 898.229C1294.93 896.816 1283.84 884.567 1281.96 880.314C1279.5 874.724 1282.72 872.831 1287.94 876.799C1290.35 878.63 1295.1 881.988 1298.5 884.261ZM785.549 667.46C775.628 669.956 777.704 671.766 787.763 669.39C792.417 668.29 795.364 667.018 794.313 666.563C793.262 666.108 789.318 666.511 785.549 667.46ZM450.602 576.416C445.238 575.376 440.225 575.055 439.463 575.703C438.702 576.351 444.226 578 451.74 579.367C472.192 583.09 471.155 580.403 450.602 576.416ZM417.528 570.065C409.302 569.184 405.793 569.859 402.057 573.038C398.356 576.188 393.123 577.232 379.705 577.496C370.069 577.686 363.858 578.565 365.901 579.45C367.945 580.335 372.161 580.652 375.271 580.153C378.38 579.654 382.194 579.795 383.746 580.468C388.378 582.474 401.672 579.638 406.368 575.642C410.263 572.327 420.992 572.002 429.931 574.929C430.906 575.249 433.117 575.367 434.843 575.192C440.175 574.65 428.744 571.266 417.528 570.065ZM610.683 660.666C608.739 661.161 604.685 660.5 601.675 659.196C598.665 657.892 594.361 657.012 592.11 657.241C589.86 657.469 580.231 656.189 570.714 654.395L553.409 651.134L556.138 646.909C557.639 644.585 559.652 642.604 560.613 642.507C561.573 642.409 573.635 645.367 587.419 649.08C611.679 655.614 618.05 658.787 610.683 660.666ZM456.898 603.202C455.11 603.658 454.746 604.507 456.089 605.089C457.432 605.671 459.994 605.773 461.783 605.318C463.571 604.862 463.935 604.013 462.592 603.431C461.249 602.849 458.687 602.746 456.898 603.202ZM444.866 602.465C443.908 603.281 441.54 603.262 439.605 602.424C437.669 601.585 434.759 601.238 433.137 601.651C428.523 602.827 440.972 605.141 446.844 604.199C450.65 603.588 451.338 603.031 449.349 602.17C447.842 601.517 445.824 601.65 444.866 602.465ZM538.787 653.01C538.163 654.475 533.706 656.902 528.883 658.403C519.576 661.301 495.933 658.143 482.11 652.156C475.951 649.488 475.851 648.804 481.166 645.664C489.025 641.022 495.606 640.119 502.02 642.805C504.911 644.015 513.186 645.62 520.41 646.372C536.221 648.016 540.29 649.486 538.787 653.01ZM208.662 641.18C204.773 640.609 201.247 640.434 200.827 640.791C199.531 641.895 211.571 644.187 214.604 643.414C217.95 642.561 217.881 642.535 208.662 641.18ZM394.606 766.952C391.3 767.059 384.839 769.545 380.248 772.479L371.9 777.813L383.944 774.08C390.568 772.027 397.2 770.536 398.681 770.768C402.085 771.3 405.236 768.759 402.593 767.615C401.507 767.144 397.912 766.846 394.606 766.952ZM340.423 750.928L331.693 750.517L338.938 752.192C342.923 753.113 347.924 753.726 350.05 753.555C356.267 753.054 350.153 751.386 340.423 750.928ZM529.964 963.04C529.283 963.741 528.102 966.058 527.34 968.188C526.004 971.924 526.098 971.949 529.943 968.889C532.137 967.143 533.318 964.826 532.567 963.74C531.816 962.655 530.645 962.34 529.964 963.04ZM488.843 1002.64C485.104 1007.6 484.108 1020.67 487.495 1020.33C488.545 1020.22 489.513 1017.38 489.646 1014.02C489.779 1010.65 490.468 1005.63 491.177 1002.86L492.466 997.83L488.843 1002.64Z" fill="white"/>
</svg>
